<svg width="80" height="80" viewBox="0 0 80 80" fill="none" xmlns="http://www.w3.org/2000/svg">
<rect width="80" height="80" rx="10.3226" fill="white"/>
<rect x="0.322581" y="0.322581" width="79.3548" height="79.3548" rx="10" stroke="white" stroke-opacity="0.08" stroke-width="0.645161"/>
<path d="M29.623 25.8545C27.5972 25.8545 26.0987 27.6282 26.1656 29.5518C26.23 31.3995 26.1464 33.793 25.5438 35.7445C24.9398 37.7023 23.918 38.9394 22.249 39.0986V40.9014C23.918 41.0603 24.9398 42.2977 25.5438 44.2555C26.1464 46.207 26.2297 48.6005 26.1656 50.4482C26.0985 52.3718 27.5972 54.1452 29.623 54.1452H50.3803C52.406 54.1452 53.9045 52.3715 53.8377 50.4482C53.7733 48.6005 53.8568 46.207 54.4592 44.2555C55.0632 42.298 56.0825 41.0606 57.7514 40.9014V39.0986C56.0825 38.9397 55.0635 37.7023 54.4592 35.7445C53.8568 33.793 53.7733 31.3995 53.8377 29.5518C53.9045 27.6282 52.406 25.8545 50.38 25.8545H29.623ZM46.0262 43.2659C46.0262 45.9146 44.0498 47.5203 40.7702 47.5203H34.7237C34.6869 47.5203 34.6517 47.5057 34.6257 47.4797C34.5997 47.4538 34.5851 47.4185 34.5851 47.3817V32.6123C34.5851 32.5941 34.5886 32.576 34.5956 32.5592C34.6025 32.5423 34.6127 32.527 34.6256 32.5141C34.6385 32.5012 34.6538 32.491 34.6706 32.484C34.6874 32.477 34.7055 32.4734 34.7237 32.4734H40.7383C43.4731 32.4734 45.2677 33.9542 45.2677 36.2275C45.2677 37.8231 44.0605 39.2513 42.5222 39.5017V39.5852C44.616 39.8147 46.0262 41.2641 46.0262 43.2659ZM40.1614 34.3818H36.9781V38.8759H39.6595C41.7319 38.8759 42.8747 38.0418 42.8747 36.5507C42.8747 35.1535 41.8922 34.3818 40.1614 34.3818ZM36.9781 40.6592V45.6123H40.2791C42.437 45.6123 43.5801 44.7469 43.5801 43.1199C43.5801 41.4933 42.4051 40.6592 40.1402 40.6592H36.9781Z" fill="#7952B3"/>
</svg>
