<svg width="80" height="80" viewBox="0 0 80 80" fill="none" xmlns="http://www.w3.org/2000/svg">
<rect width="80" height="80" rx="10.3226" fill="white"/>
<rect x="0.322581" y="0.322581" width="79.3548" height="79.3548" rx="10" stroke="white" stroke-opacity="0.08" stroke-width="0.645161"/>
<path d="M22.333 22.333H57.6672V57.6675H22.333V22.333Z" fill="#F0DB4F"/>
<path d="M54.7757 49.2403C54.5169 47.6284 53.4658 46.2744 50.3522 45.0118C49.2706 44.5148 48.0648 44.1589 47.7054 43.3392C47.5779 42.8622 47.5609 42.5935 47.6416 42.3047C47.8734 41.3676 48.992 41.0755 49.8785 41.3442C50.4495 41.5356 50.9901 41.9756 51.3161 42.6776C52.8408 41.6902 52.8377 41.6967 53.9024 41.0182C53.5126 40.4139 53.3046 40.135 53.0494 39.8764C52.1324 38.8521 50.8828 38.3246 48.8844 38.3649L47.8435 38.4996C46.846 38.7516 45.8953 39.2752 45.3379 39.9772C43.6652 41.8751 44.1422 45.1967 46.1776 46.5637C48.1827 48.0687 51.1284 48.4111 51.5046 49.8184C51.8707 51.5413 50.2384 52.0991 48.616 51.9009C47.4204 51.6522 46.7554 51.0445 46.0364 49.9395C44.7132 50.7053 44.7132 50.7053 43.3527 51.4877C43.6754 52.1931 44.0143 52.5123 44.5552 53.1234C47.1147 55.7196 53.5197 55.592 54.6685 51.6624C54.715 51.5275 55.0244 50.6276 54.7757 49.2403ZM41.5421 38.573H38.2371L38.2235 47.1175C38.2235 48.9347 38.3175 50.6006 38.022 51.1112C37.5385 52.1154 36.2856 51.991 35.7146 51.7962C35.1334 51.5106 34.8379 51.1044 34.4955 50.5303C34.4015 50.3654 34.3309 50.2378 34.3072 50.228L31.6201 51.8735C32.0669 52.7906 32.7252 53.5866 33.5683 54.1037C34.8277 54.8595 36.5204 55.0913 38.2907 54.6848C39.4429 54.3492 40.437 53.654 40.9575 52.5958C41.71 51.2085 41.5485 49.5294 41.5418 47.6721C41.5587 44.6421 41.5421 41.6126 41.5421 38.573Z" fill="#323330"/>
</svg>
