<svg width="80" height="80" viewBox="0 0 80 80" fill="none" xmlns="http://www.w3.org/2000/svg">
<rect width="80" height="80" rx="10.3226" fill="white"/>
<rect x="0.322581" y="0.322581" width="79.3548" height="79.3548" rx="10" stroke="white" stroke-opacity="0.08" stroke-width="0.645161"/>
<path fill-rule="evenodd" clip-rule="evenodd" d="M45.3071 31.597C44.5721 29.3085 43.3931 27.283 41.7317 25.5401C41.3117 25.0992 40.8449 24.6953 40.5519 24.1468C40.3667 23.7997 40.1903 23.4477 40.01 23.0982L39.8954 22.8101L39.8635 22.9235C39.8485 23.4937 39.5256 23.8801 39.1237 24.2411C38.6709 24.647 38.2498 25.0879 37.8151 25.5138L36.4783 27.272L35.3976 29.2597L34.6747 31.2115L34.653 31.2417C34.2553 32.5482 34.0591 33.8918 33.9629 35.2483C33.9265 35.7584 33.9682 36.2755 33.9967 36.788C34.0377 37.5208 34.165 38.2408 34.3558 38.9501C35.0493 41.526 36.4569 43.6624 38.3816 45.4779C38.739 45.8152 39.1254 46.122 39.4982 46.4427L39.6633 47.0095L39.8169 47.889L39.8903 48.8072C39.8894 48.9934 39.8818 49.1806 39.8928 49.3663C39.8959 49.414 39.958 49.458 39.993 49.5038L40.3046 49.6133L40.629 49.7395L40.5733 48.9234L40.5708 48.1196L40.6829 46.8951L40.7642 46.6287L40.997 46.2163C41.2844 45.9854 41.5923 45.7754 41.854 45.5183C42.3273 45.0534 42.7998 44.582 43.2235 44.0726C43.7747 43.4122 44.2455 42.6887 44.626 41.9172C44.8798 41.3999 45.1191 40.872 45.317 40.3315C45.4914 39.8551 45.5995 39.354 45.737 38.8638L45.7731 38.7579C46.0568 37.4347 46.1045 36.0979 46.0003 34.7527C45.9165 33.6685 45.6616 32.6222 45.3071 31.597ZM39.6902 45.7876C39.7336 45.5699 39.7875 45.3534 39.8268 45.135C39.7875 45.3534 39.7339 45.5699 39.6902 45.7876ZM40.6546 45.9377L40.4723 45.5383L40.6546 45.9377L40.9225 46.1666L40.6546 45.9377ZM51.9884 50.9978C51.7553 50.5509 51.4132 50.2117 50.961 49.989C50.5822 49.8027 50.1749 49.7208 49.756 49.709C49.4422 49.6999 49.1272 49.716 48.8127 49.72C48.5336 49.7234 48.2542 49.7282 47.975 49.7256C47.6467 49.7222 47.3185 49.7124 46.9902 49.703C46.9357 49.7013 46.8971 49.7124 46.8717 49.7677C46.8319 49.8538 46.7847 49.9368 46.7359 50.031L46.7906 50.0485C46.9535 50.0773 47.1172 50.1019 47.2792 50.1343C47.4875 50.1758 47.5812 50.2955 47.5908 50.4711C47.605 50.7211 47.6106 50.9718 47.6098 51.2224C47.6055 52.2143 47.5985 53.2061 47.5911 54.1977C47.5906 54.2632 47.5894 54.3315 47.5717 54.393C47.551 54.4642 47.5287 54.5562 47.4757 54.5912C47.3802 54.6525 47.273 54.6934 47.161 54.7111C47.0026 54.7371 46.9761 54.7442 46.9267 54.9L46.9052 54.9779C46.8815 55.0628 46.8942 55.0795 46.9829 55.0803C47.4915 55.086 47.9998 55.097 48.5082 55.0953C48.9719 55.0936 49.4357 55.1218 49.8977 55.0346C50.3344 54.9525 50.742 54.8085 51.114 54.5649C51.5967 54.2485 51.9438 53.8257 52.127 53.2739C52.2749 52.8282 52.3079 52.3735 52.2577 51.9075C52.2263 51.5899 52.135 51.2812 51.9884 50.9978ZM51.0973 53.7247C50.8252 54.231 50.4194 54.5692 49.8393 54.6584C49.476 54.714 49.1122 54.6979 48.7659 54.5604C48.5466 54.4735 48.465 54.2841 48.4582 54.0603C48.452 53.8409 48.4489 53.6215 48.4489 53.402C48.4478 52.6303 48.4478 51.8586 48.4489 51.0872C48.4495 50.8442 48.4537 50.6006 48.4577 50.3573C48.4605 50.1863 48.4963 50.129 48.6631 50.1151C49.3959 50.0536 50.095 50.1326 50.6756 50.6483C51.0347 50.9673 51.239 51.374 51.324 51.8411C51.3593 52.0359 51.37 52.2352 51.392 52.4328C51.3742 52.8838 51.3133 53.3227 51.0973 53.7247ZM57.2475 52.8889C57.1029 52.5372 56.8292 52.3167 56.4851 52.1756C56.3677 52.1274 56.2466 52.0876 56.1198 52.0407L56.1642 52.0125C56.301 51.9247 56.4535 51.8538 56.5714 51.7457C56.8582 51.483 56.9773 51.1524 56.9214 50.7598C56.8684 50.3864 56.6821 50.1123 56.3493 49.9345C56.0473 49.7736 55.7216 49.7149 55.3846 49.7152C54.8014 49.7157 54.218 49.7245 53.6348 49.7256C53.4339 49.7259 53.2329 49.7109 53.0319 49.7081C52.993 49.7076 52.9351 49.7174 52.9185 49.7434C52.8725 49.814 52.842 49.8953 52.8092 49.9737C52.7903 50.0195 52.809 50.0446 52.8612 50.0513C53.0014 50.0705 53.1414 50.0945 53.282 50.1154C53.4762 50.1445 53.5702 50.2455 53.5821 50.4411L53.5846 50.5572C53.5849 51.1654 53.5869 51.7737 53.5843 52.382C53.5807 52.9894 53.5749 53.5968 53.5671 54.2042C53.5662 54.2807 53.5558 54.3575 53.5448 54.4334C53.5281 54.548 53.4669 54.627 53.3495 54.6519L53.0173 54.7174C52.978 54.7253 52.9213 54.7241 52.9052 54.7484C52.8442 54.8396 52.7951 54.9392 52.8019 55.0594L52.836 55.0688L53.9518 55.0961L54.1756 55.0953C54.5618 55.0908 54.9485 55.0984 55.334 55.0786C55.7515 55.0578 56.1435 54.9338 56.506 54.7207C56.8918 54.4935 57.1887 54.194 57.2943 53.7436C57.3621 53.4559 57.3623 53.1666 57.2475 52.8889ZM54.4127 50.2975C54.4144 50.1753 54.4683 50.1222 54.5897 50.1191C54.8886 50.1109 55.1856 50.1126 55.474 50.2156C55.8472 50.3488 56.0767 50.6706 56.0724 51.0638C56.0704 51.2148 56.0727 51.3644 56.0171 51.5095C55.9073 51.7951 55.6967 51.9459 55.3981 51.9752C55.2423 51.991 55.0851 51.9927 54.9462 52.0001L54.4827 51.9797C54.4212 51.9775 54.3944 51.9504 54.3947 51.8872L54.4127 50.2975ZM56.3338 54.1063C56.1845 54.4311 55.9124 54.6019 55.5717 54.6612C55.3002 54.7078 55.0218 54.6955 54.7554 54.6253C54.5561 54.5742 54.4748 54.4142 54.435 54.2367C54.4082 54.1178 54.4127 53.9764 54.4105 53.8528C54.4068 53.662 54.4096 53.266 54.4096 53.266H54.4057C54.4057 52.9837 54.4065 52.7393 54.4048 52.4686C54.4046 52.4102 54.4144 52.3811 54.4858 52.3834C54.7393 52.391 54.9936 52.3952 55.2471 52.4051C55.4737 52.4138 55.686 52.481 55.8856 52.5886C56.1893 52.7523 56.3722 53.0029 56.4224 53.3473C56.4608 53.6084 56.4444 53.8652 56.3338 54.1063ZM28.5068 54.4105L28.5122 52.8759C28.513 52.645 28.4837 52.4186 28.408 52.1996C28.1994 51.5964 27.6242 51.3218 27.0252 51.5383C26.7529 51.6368 26.5087 51.7861 26.2756 51.9555C26.1398 52.0543 26.1398 52.0542 26.0416 51.9134C25.7636 51.5149 25.3664 51.3785 24.9041 51.5256C24.6052 51.6204 24.3438 51.7827 24.0963 51.9713C24.0731 51.9888 24.0265 52.0082 24.0127 51.9978C23.9896 51.9806 23.9735 51.9397 23.974 51.9089L23.991 51.6362C23.9924 51.5789 23.9814 51.5213 23.9757 51.4612C23.864 51.4999 23.7748 51.5386 23.6813 51.5611C23.3926 51.6317 23.1019 51.6966 22.8114 51.763C22.7411 51.779 22.6669 51.8002 22.6601 51.8809C22.6531 51.9603 22.7296 51.9735 22.7888 51.9972C22.9136 52.0475 23.0375 52.1008 23.1608 52.155C23.2644 52.2007 23.3031 52.2834 23.3025 52.3947C23.3006 52.8703 23.3037 53.3453 23.3008 53.8209C23.2997 54.0142 23.2907 54.2073 23.2819 54.4007C23.274 54.572 23.2156 54.6437 23.0496 54.6869C22.9616 54.71 22.8721 54.7255 22.7835 54.7464C22.764 54.7509 22.7307 54.7634 22.7304 54.773C22.7267 54.8568 22.7222 54.9426 22.7363 55.0242C22.7392 55.0388 22.8278 55.0388 22.8769 55.0445L22.9099 55.0425C23.252 55.0374 23.5941 55.0321 23.9365 55.0284C24.118 55.0264 24.2992 55.0281 24.4962 55.0281L24.5174 54.7543C24.4045 54.7337 24.3037 54.7182 24.2044 54.6965C24.0494 54.6626 23.9833 54.5805 23.9794 54.4241L23.9766 54.2003C23.9749 53.6197 23.9726 53.0393 23.9726 52.4587C23.9726 52.3743 24.0076 52.3074 24.0819 52.2569C24.2391 52.1508 24.405 52.0664 24.5888 52.0192C24.976 51.9202 25.3119 52.0579 25.461 52.3873C25.5081 52.4912 25.5451 52.6061 25.5555 52.719C25.6103 53.301 25.5866 53.8836 25.5536 54.4656C25.5465 54.5912 25.4875 54.6544 25.3636 54.6852L25.0723 54.7467C25.0489 54.7526 25.0147 54.7368 25.013 54.7563C25.0065 54.8368 25.0102 54.9601 25.0102 54.9601H25.0796L25.9665 54.9892C26.2095 54.9886 26.4528 55.018 26.6956 55.0242C26.739 55.025 26.7777 55.0315 26.7802 54.9813C26.783 54.9033 26.782 54.8252 26.7771 54.7473L26.7308 54.7391L26.481 54.6829C26.3125 54.6431 26.2544 54.579 26.2538 54.4086C26.2519 53.9883 26.2575 53.5683 26.2538 53.1483C26.2517 52.9081 26.2427 52.668 26.227 52.4282C26.2228 52.3645 26.2327 52.3227 26.2835 52.2868C26.4307 52.1792 26.5964 52.0993 26.7723 52.0511C27.3185 51.9072 27.7656 52.2067 27.7938 52.7698C27.8215 53.3128 27.8099 53.8579 27.8057 54.4021C27.8043 54.5915 27.7416 54.6488 27.555 54.6996L27.4907 54.7162C27.2996 54.762 27.3013 54.7619 27.3126 54.9649C27.3163 55.0284 27.3338 55.0448 27.4015 55.0431C27.7907 55.0343 28.18 55.0321 28.5692 55.0287C28.7284 55.0273 28.8876 55.0287 29.0609 55.0287L29.0962 54.7645C28.944 54.7241 28.8038 54.6942 28.6683 54.6499C28.5486 54.6092 28.5063 54.537 28.5068 54.4105ZM41.911 52.0845C42.0713 51.9357 42.0724 51.7393 42.0275 51.5211C41.9005 51.654 41.7583 51.7153 41.596 51.7268C41.3783 51.7424 41.1647 51.7234 40.962 51.6368C40.4139 51.4014 39.8742 51.418 39.3362 51.6763C38.8837 51.8931 38.6054 52.2309 38.5775 52.7432C38.5597 53.0715 38.6213 53.3823 38.8403 53.6434C38.9715 53.7997 39.14 53.9011 39.33 53.9711C39.4119 54.0013 39.4181 54.0402 39.3495 54.0924C39.2988 54.1307 39.2464 54.1665 39.1923 54.1997C39.0776 54.2718 38.9623 54.3427 38.8462 54.4125C38.7782 54.4537 38.755 54.5062 38.7773 54.5867C38.8425 54.8232 39.0105 54.9598 39.2205 55.0594L39.297 55.1128L39.2301 55.1797C39.0243 55.3465 38.8104 55.504 38.6133 55.681C38.4479 55.8297 38.3946 56.029 38.4446 56.2489C38.5453 56.6878 38.8363 56.9593 39.2493 57.0841C39.971 57.3026 40.6487 57.1772 41.2666 56.7496C41.6329 56.4959 41.8957 56.1656 41.9756 55.7112C42.0651 55.2006 41.7814 54.7574 41.2736 54.666C40.9377 54.605 40.594 54.5875 40.2541 54.5486C40.0955 54.5305 39.9346 54.5198 39.7802 54.4834C39.649 54.4523 39.5837 54.3453 39.5959 54.2409C39.608 54.1382 39.7173 54.0425 39.8423 54.0326C40.0941 54.0123 40.3408 53.973 40.5728 53.8669C41.1875 53.5858 41.4729 53.0935 41.4015 52.4308C41.3922 52.3416 41.3719 52.2535 41.3535 52.1497C41.5502 52.1827 41.7515 52.2326 41.911 52.0845ZM40.0455 55.1941C40.2956 55.2014 40.5801 55.2169 40.855 55.2974C41.0969 55.368 41.2959 55.4916 41.3546 55.7617C41.4255 56.088 41.2685 56.4126 40.9527 56.587C40.6569 56.7502 40.3357 56.7637 40.01 56.7301C39.7311 56.7013 39.4802 56.6048 39.2792 56.3988C39.0144 56.1275 39.013 55.7521 39.2781 55.4817C39.5149 55.2401 39.6416 55.1901 40.0455 55.1941ZM40.6713 53.229C40.5256 53.695 40.1017 53.7594 39.7695 53.6103C39.4864 53.4836 39.363 53.2341 39.2984 52.9493C39.2733 52.8398 39.2673 52.726 39.2527 52.614C39.2586 52.4534 39.2851 52.2992 39.3543 52.1547C39.5662 51.7096 40.087 51.7361 40.3752 51.9377C40.4988 52.024 40.5849 52.1415 40.6388 52.2806C40.7588 52.5835 40.7703 52.9186 40.6713 53.229ZM38.0265 54.7145C37.9257 54.6991 37.826 54.6769 37.7282 54.6479C37.5566 54.5954 37.5357 54.5632 37.5337 54.3818C37.5286 53.8759 37.5252 53.3701 37.5196 52.8646C37.5168 52.6371 37.4897 52.4127 37.42 52.1954C37.2365 51.6224 36.6745 51.3147 36.1123 51.4838C35.8006 51.5778 35.5331 51.7525 35.2838 51.9577L35.1929 52.0274L35.1932 51.934C35.1992 51.8265 35.2107 51.7189 35.2099 51.6114C35.2093 51.5552 35.1879 51.4988 35.1774 51.4494C34.9649 51.5134 34.7744 51.5778 34.5799 51.6269C34.3848 51.676 34.1858 51.7093 33.9885 51.7494C33.8906 51.7692 33.8186 51.8284 33.8203 51.8959C33.8229 51.991 33.9016 52.0094 33.9705 52.0379C34.0952 52.089 34.2197 52.1406 34.3431 52.1954C34.4311 52.2346 34.467 52.3074 34.4661 52.402C34.4599 53.0594 34.456 53.717 34.4464 54.3747C34.4435 54.5824 34.391 54.6372 34.1867 54.6829L34.0975 54.7007C33.9084 54.7332 33.903 54.7408 33.916 54.9403L33.9171 54.9734C33.9149 55.0501 33.9485 55.075 34.0275 55.0741C34.5299 55.0682 35.0326 55.0654 35.535 55.0674C35.7504 55.0682 35.7736 55.0513 35.769 54.83L35.7589 54.7349C35.6358 54.7143 35.5181 54.6993 35.4029 54.6739C35.2824 54.6471 35.2392 54.5977 35.2279 54.4752C35.2175 54.3631 35.2141 54.2494 35.213 54.1365C35.2073 53.6197 35.2028 53.1028 35.2003 52.5863C35.1997 52.4562 35.2237 52.3354 35.3434 52.2515C35.5195 52.1257 35.7272 52.0512 35.9432 52.0365C36.3914 52.0057 36.7321 52.2713 36.7564 52.7181C36.7863 53.2694 36.7773 53.8226 36.7843 54.375C36.7849 54.4162 36.7775 54.4577 36.7719 54.4986C36.7612 54.5793 36.7217 54.64 36.6398 54.6609C36.5599 54.6818 36.4789 54.7004 36.3973 54.7128C36.2757 54.7309 36.2731 54.7301 36.2638 54.8528L36.2669 54.9355C36.2813 55.0784 36.2816 55.0741 36.4261 55.0727C36.9122 55.0688 37.3979 55.0662 37.8837 55.0668C38.0869 55.0674 38.1013 55.0578 38.103 54.8483L38.1025 54.7986C38.1056 54.745 38.0816 54.7233 38.0265 54.7145ZM44.8154 51.5185C44.3059 51.394 43.8227 51.4866 43.3637 51.724C42.9178 51.9546 42.6197 52.3111 42.5062 52.8034C42.3917 53.301 42.4464 53.7865 42.6663 54.2485C42.8094 54.5486 43.0296 54.7806 43.3293 54.9313C44.031 55.2847 44.8894 55.1244 45.4398 54.6516C45.8742 54.2787 46.0336 53.7822 46.0432 53.1678C46.0373 53.1062 46.0314 52.9877 46.015 52.8703C45.9227 52.2013 45.4595 51.676 44.8154 51.5185ZM45.2012 54.1026C45.066 54.6349 44.6057 54.8715 44.0863 54.6886C43.8213 54.5954 43.6231 54.4173 43.4899 54.1765C43.1834 53.6233 43.1244 53.0351 43.2988 52.4316C43.4151 52.0297 43.7459 51.8098 44.1394 51.8375C44.4911 51.862 44.7615 52.0308 44.9599 52.317C45.1691 52.619 45.2498 52.9626 45.2712 53.3233C45.2749 53.3811 45.2718 53.439 45.2718 53.4972L45.2967 53.5C45.2656 53.7012 45.2509 53.9064 45.2012 54.1026ZM32.0017 51.5098C31.4657 51.3873 30.9636 51.5084 30.4984 51.7807C30.0962 52.0161 29.8363 52.3678 29.7366 52.8274C29.6432 53.2567 29.6813 53.6786 29.8334 54.0899C29.926 54.3405 30.0663 54.561 30.2721 54.7329C30.7053 55.0945 31.2117 55.1859 31.7505 55.0851C32.2067 54.9996 32.6075 54.797 32.8988 54.4179C33.1714 54.0634 33.2753 53.6563 33.286 53.2152C33.2699 53.0755 33.266 52.9332 33.2363 52.7969C33.089 52.1163 32.691 51.667 32.0017 51.5098ZM32.439 54.1009C32.3083 54.6304 31.8406 54.8729 31.3249 54.69C30.9938 54.5723 30.7781 54.3298 30.6418 54.019C30.4233 53.5197 30.3788 53.0001 30.5202 52.4734C30.6285 52.0706 30.9551 51.774 31.455 51.8451C31.7618 51.8886 32.0012 52.0452 32.1796 52.2945C32.4206 52.6306 32.4999 53.0156 32.5109 53.4201V53.5028L32.5313 53.5059C32.5016 53.7046 32.4869 53.9067 32.439 54.1009Z" fill="#4FAA41"/>
</svg>
