<svg width="80" height="80" viewBox="0 0 80 80" fill="none" xmlns="http://www.w3.org/2000/svg">
<rect width="80" height="80" rx="10.3226" fill="white"/>
<rect x="0.322581" y="0.322581" width="79.3548" height="79.3548" rx="10" stroke="white" stroke-opacity="0.08" stroke-width="0.645161"/>
<path d="M54.2044 44.7275C54.1225 44.7275 54.0412 44.706 53.9695 44.6642L53.2216 44.2217C53.1098 44.1593 53.1643 44.137 53.2012 44.1243C53.3503 44.0723 53.3805 44.0602 53.5394 43.9704C53.556 43.9611 53.5778 43.9645 53.595 43.9747L54.1694 44.3159C54.1801 44.3216 54.192 44.3246 54.2041 44.3246C54.2162 44.3246 54.2281 44.3216 54.2388 44.3159L56.4791 43.0229C56.4896 43.0167 56.4984 43.0078 56.5044 42.9972C56.5105 42.9865 56.5136 42.9745 56.5135 42.9622V40.3767C56.5135 40.3643 56.5104 40.3521 56.5043 40.3413C56.4982 40.3305 56.4894 40.3214 56.4788 40.3149L54.2394 39.023C54.2288 39.0172 54.2169 39.0141 54.2048 39.0141C54.1927 39.0141 54.1808 39.0172 54.1702 39.023L51.9311 40.3152C51.9205 40.3216 51.9116 40.3306 51.9055 40.3414C51.8993 40.3522 51.896 40.3643 51.8958 40.3767V42.9622C51.8958 42.9871 51.9096 43.0105 51.9311 43.0221L52.5447 43.3769C52.8778 43.5431 53.0818 43.3472 53.0818 43.1502V40.5972C53.0818 40.5613 53.1109 40.5328 53.1468 40.5328H53.431C53.4663 40.5328 53.4956 40.5613 53.4956 40.5972V43.1502C53.4956 43.5945 53.2537 43.8494 52.8323 43.8494C52.7028 43.8494 52.6009 43.8494 52.3164 43.7094L51.729 43.3712C51.6575 43.3296 51.5982 43.2699 51.557 43.1982C51.5158 43.1265 51.4941 43.0452 51.4941 42.9625V40.377C51.4941 40.2091 51.5836 40.0524 51.729 39.9689L53.9693 38.6742C54.0414 38.6349 54.1223 38.6143 54.2045 38.6143C54.2867 38.6143 54.3676 38.6349 54.4398 38.6742L56.6801 39.9689C56.8251 40.0527 56.9152 40.2094 56.9152 40.377V42.9625C56.915 43.0452 56.8933 43.1265 56.852 43.1982C56.8108 43.2698 56.7515 43.3295 56.6801 43.3712L54.4398 44.6645C54.3683 44.706 54.287 44.7277 54.2044 44.7275ZM54.8968 42.9461C53.9159 42.9461 53.7107 42.4959 53.7107 42.1185C53.7108 42.1014 53.7177 42.0849 53.7298 42.0728C53.742 42.0607 53.7585 42.0539 53.7756 42.0539H54.0652C54.0807 42.0539 54.0957 42.0593 54.1075 42.0694C54.1193 42.0794 54.1272 42.0934 54.1296 42.1087C54.1731 42.4036 54.3037 42.5524 54.8968 42.5524C55.3684 42.5524 55.5694 42.4457 55.5694 42.195C55.5694 42.0505 55.5124 41.9435 54.7791 41.8716C54.166 41.8109 53.7869 41.6757 53.7869 41.1848C53.7869 40.7329 54.168 40.4631 54.8064 40.4631C55.5242 40.4631 55.8793 40.7123 55.9242 41.2469C55.9249 41.2559 55.9237 41.265 55.9208 41.2735C55.9179 41.2821 55.9133 41.2899 55.9072 41.2966C55.9011 41.303 55.8938 41.3082 55.8856 41.3117C55.8775 41.3152 55.8687 41.3171 55.8598 41.3172H55.5688C55.5541 41.3172 55.5399 41.3122 55.5284 41.3031C55.517 41.2939 55.509 41.281 55.5059 41.2667C55.4359 40.9562 55.2665 40.8571 54.8062 40.8571C54.291 40.8571 54.2312 41.0369 54.2312 41.171C54.2312 41.3339 54.3018 41.3813 54.9975 41.4733C55.686 41.5645 56.0131 41.6932 56.0131 42.1773C56.0134 42.6664 55.6064 42.9461 54.8968 42.9461Z" fill="#83CD29"/>
<path d="M49.5916 41.2507C49.68 41.199 49.7344 41.1047 49.7344 41.0023V40.3378C49.7344 40.2357 49.6802 40.1414 49.5916 40.0897L47.2308 38.7191C47.1872 38.6937 47.1376 38.6803 47.0871 38.6802C47.0366 38.6801 46.9869 38.6933 46.9432 38.7185L44.5677 40.09C44.5241 40.1152 44.488 40.1514 44.4628 40.195C44.4376 40.2386 44.4244 40.2881 44.4243 40.3384V43.0808C44.4243 43.1838 44.4796 43.2792 44.5694 43.3303L46.9299 44.6753C47.0169 44.7253 47.1236 44.7255 47.2113 44.677L48.639 43.8833C48.6612 43.8709 48.6798 43.8529 48.6927 43.8311C48.7057 43.8092 48.7126 43.7843 48.7128 43.7589C48.713 43.7335 48.7064 43.7084 48.6937 43.6864C48.681 43.6644 48.6627 43.6461 48.6407 43.6335L46.2505 42.2617C46.2286 42.2492 46.2104 42.2311 46.1977 42.2093C46.185 42.1875 46.1783 42.1627 46.1783 42.1375V41.2777C46.1783 41.2264 46.2056 41.1792 46.25 41.1538L46.9943 40.7248C47.016 40.7122 47.0407 40.7055 47.0658 40.7055C47.091 40.7055 47.1156 40.7122 47.1374 40.7248L47.8817 41.1538C47.9035 41.1663 47.9217 41.1844 47.9343 41.2061C47.9469 41.2279 47.9536 41.2526 47.9537 41.2777V41.954C47.9535 41.9793 47.9601 42.0042 47.9727 42.0261C47.9853 42.0481 48.0034 42.0663 48.0254 42.0789C48.0473 42.0915 48.0721 42.0981 48.0974 42.098C48.1227 42.0979 48.1475 42.0911 48.1693 42.0782L49.5916 41.2507Z" fill="#404137"/>
<path d="M47.0521 41.1219C47.0605 41.1172 47.07 41.1147 47.0796 41.1147C47.0892 41.1147 47.0987 41.1172 47.1071 41.1219L47.563 41.3853C47.5799 41.3951 47.5903 41.4135 47.5903 41.433V41.9594C47.5903 41.9791 47.5799 41.9972 47.563 42.0071L47.1071 42.2701C47.0988 42.275 47.0893 42.2776 47.0796 42.2776C47.0699 42.2776 47.0604 42.275 47.0521 42.2701L46.5965 42.0071C46.5881 42.0023 46.5811 41.9953 46.5762 41.987C46.5714 41.9786 46.5688 41.9691 46.5688 41.9594V41.433C46.5688 41.4135 46.5793 41.3951 46.5965 41.3853L47.0521 41.1219Z" fill="#83CD29"/>
<path d="M40.8703 42.2171C40.8703 42.2425 40.8567 42.2662 40.8344 42.2792L40.0187 42.7494C40.0078 42.7558 39.9955 42.7592 39.9829 42.7592C39.9703 42.7592 39.9579 42.7558 39.947 42.7494L39.1313 42.2792C39.1204 42.2729 39.1114 42.2638 39.1051 42.2529C39.0988 42.242 39.0955 42.2297 39.0954 42.2171V41.2749C39.0954 41.2495 39.1093 41.2255 39.1313 41.2125L39.947 40.7417C39.9579 40.7352 39.9703 40.7318 39.983 40.7318C39.9957 40.7318 40.0081 40.7352 40.019 40.7417L40.835 41.2125C40.8458 41.219 40.8548 41.2281 40.861 41.239C40.8672 41.25 40.8705 41.2623 40.8706 41.2749V42.2171H40.8703ZM41.0907 35.2408C41.0689 35.2289 41.0443 35.2228 41.0193 35.2232C40.9944 35.2235 40.97 35.2304 40.9485 35.243C40.927 35.2556 40.9092 35.2736 40.8967 35.2952C40.8842 35.3168 40.8776 35.3412 40.8773 35.3661V39.0115C40.8773 39.0291 40.8726 39.0463 40.8639 39.0616C40.8551 39.0768 40.8425 39.0895 40.8274 39.0984C40.8121 39.1072 40.7948 39.1118 40.7771 39.1118C40.7595 39.1118 40.7422 39.1072 40.7269 39.0984L40.1319 38.7555C40.0883 38.7304 40.0389 38.7172 39.9886 38.7172C39.9384 38.7172 39.889 38.7304 39.8454 38.7555L37.4694 40.1267C37.4257 40.1519 37.3894 40.1881 37.3642 40.2318C37.339 40.2754 37.3257 40.325 37.3257 40.3754V43.1186C37.3257 43.2211 37.3804 43.3156 37.4691 43.3673L39.8451 44.7394C39.9337 44.7907 40.0433 44.7907 40.1322 44.7394L42.5088 43.3673C42.5524 43.342 42.5885 43.3057 42.6137 43.2621C42.6388 43.2185 42.6521 43.169 42.6522 43.1186V36.2804C42.6522 36.1765 42.5957 36.0805 42.5051 36.0297L41.0907 35.2408Z" fill="#404137"/>
<path d="M32.7285 38.7035C32.7721 38.6783 32.8216 38.665 32.8719 38.665C32.9223 38.665 32.9717 38.6783 33.0153 38.7035L35.3914 40.0745C35.48 40.1258 35.5348 40.2207 35.5348 40.3231V43.0673C35.5348 43.1697 35.48 43.2646 35.3914 43.3159L33.0156 44.688C32.9719 44.7131 32.9224 44.7263 32.8721 44.7263C32.8217 44.7263 32.7722 44.7131 32.7285 44.688L30.3533 43.3159C30.3098 43.2906 30.2736 43.2544 30.2485 43.2107C30.2233 43.1671 30.21 43.1176 30.21 43.0673V40.3229C30.21 40.2207 30.2647 40.1258 30.3533 40.0745L32.7285 38.7035Z" fill="#83CD29"/>
<path d="M28.4077 40.3002C28.4077 40.1969 28.3535 40.1021 28.2643 40.051L25.8891 38.684C25.8493 38.6609 25.8043 38.648 25.7582 38.6465H25.7336C25.6875 38.648 25.6426 38.6609 25.6026 38.684L23.2272 40.051C23.1835 40.0763 23.1472 40.1126 23.122 40.1564C23.0968 40.2001 23.0835 40.2497 23.0835 40.3002L23.0886 43.9809C23.0886 44.0322 23.1154 44.08 23.1603 44.1048C23.1818 44.1178 23.2064 44.1247 23.2315 44.1247C23.2567 44.1247 23.2813 44.1178 23.3028 44.1048L24.7141 43.2964C24.8033 43.2433 24.8578 43.1499 24.8578 43.0475V41.3279C24.8578 41.2252 24.912 41.1306 25.0009 41.0793L25.6021 40.7332C25.6455 40.7077 25.6951 40.6943 25.7455 40.6945C25.7946 40.6945 25.8448 40.707 25.8886 40.7332L26.4892 41.0793C26.5781 41.1306 26.6329 41.2252 26.6329 41.3279V43.0475C26.6329 43.1499 26.6879 43.2439 26.7766 43.2964L28.1878 44.1048C28.2096 44.1172 28.2343 44.1237 28.2593 44.1237C28.2844 44.1236 28.309 44.117 28.3307 44.1045C28.3524 44.0919 28.3704 44.0739 28.383 44.0522C28.3956 44.0305 28.4023 44.0059 28.4024 43.9809L28.4077 40.3002Z" fill="#404137"/>
</svg>
