<svg width="80" height="80" viewBox="0 0 80 80" fill="none" xmlns="http://www.w3.org/2000/svg">
<rect width="80" height="80" rx="10.3226" fill="white"/>
<rect x="0.322581" y="0.322581" width="79.3548" height="79.3548" rx="10" stroke="white" stroke-opacity="0.08" stroke-width="0.645161"/>
<path fill-rule="evenodd" clip-rule="evenodd" d="M26.7153 22.4204C26.3972 22.4452 26.0847 22.4413 25.7768 22.5257C25.103 22.7106 24.5043 23.0061 23.9762 23.4617C23.6658 23.7292 23.3948 24.0177 23.1647 24.3575C22.8097 24.8823 22.5678 25.4462 22.4464 26.081C22.495 26.166 22.546 26.2552 22.6002 26.3458C22.9443 26.921 23.2887 27.4923 23.6336 28.067L24.5402 29.5745C24.8191 30.0391 25.0974 30.504 25.3757 30.9686L26.6763 33.1386L27.5635 34.6188C27.9945 35.3371 28.4266 36.0549 28.857 36.7735L30.4402 39.4186C30.8966 40.1804 31.3539 40.9416 31.8112 41.7029L31.8721 41.7915C31.9385 41.8127 31.9912 41.7946 32.046 41.7816C32.6483 41.6371 33.2507 41.4934 33.853 41.3495C34.8299 41.1161 35.8068 40.8835 36.7837 40.6498L38.3138 40.2837C39.3014 40.0477 40.2893 39.8123 41.277 39.5758C42.2753 39.337 43.2734 39.0971 44.272 38.858C44.7767 38.7369 45.2814 38.6164 45.7863 38.4959C46.7632 38.2627 47.7401 38.0301 48.717 37.7975L51.9088 37.0374L52.0812 36.9909L52.0341 36.8974L51.1631 35.6662L50.3027 34.4483L49.3826 33.1488L48.5031 31.9032L47.6314 30.6722L46.7316 29.4001C46.4378 28.9852 46.1434 28.5708 45.8493 28.1562L45.3844 27.4996C45.3128 27.3997 45.2569 27.2894 45.2187 27.1725C45.1267 26.8871 45.2317 26.6972 45.3982 26.5569C45.506 26.4657 45.6302 26.3988 45.7646 26.3593C45.9512 26.302 46.1405 26.2539 46.3319 26.2154C46.7155 26.1428 47.1016 26.0813 47.4866 26.0172L48.7918 25.8044C49.067 25.759 49.3419 25.7113 49.6171 25.6647C49.9911 25.6015 50.3651 25.538 50.7394 25.4756C51.1026 25.4146 51.4659 25.3542 51.8292 25.2944L53.0183 25.0999L53.8437 24.9613C54.1575 24.9088 54.4711 24.8566 54.7847 24.8052C55.1759 24.7414 55.5668 24.6771 55.9581 24.6158C56.1912 24.5794 56.4243 24.5667 56.6558 24.6333C56.8275 24.6842 56.9893 24.7637 57.1345 24.8684L57.338 25.0104C57.3583 24.9636 57.329 24.9382 57.3154 24.9113C57.0266 24.3224 56.6169 23.8009 56.113 23.3809C55.6455 22.9881 55.1048 22.6917 54.5222 22.5088C54.1753 22.399 53.8188 22.45 53.4558 22.4227M37.6542 57.782C37.6367 57.782 37.6212 57.655 37.6014 57.6214C37.178 56.8988 36.7501 56.1231 36.3318 55.398C35.8051 54.4838 35.2823 53.5674 34.7633 52.6488C34.2087 51.6671 33.6588 50.6826 33.1084 49.6987C32.5854 48.7632 32.0633 47.8273 31.5422 46.8908C31.2274 46.3248 30.9147 45.7578 30.6003 45.1916L30.5167 45.062L30.3637 45.0922C30.0612 45.1704 29.7591 45.2492 29.4571 45.3288C29.0366 45.4394 28.6163 45.552 28.1954 45.6618C27.2507 45.9077 26.306 46.1521 25.3613 46.3971C24.4005 46.6466 23.3993 46.8967 22.4382 47.1451C22.3798 47.16 22.5 47.1651 22.2178 47.175V53.1434C22.3341 53.3285 22.3231 53.2413 22.3304 53.3023C22.3527 53.479 22.3888 53.6571 22.4199 53.8321C22.5362 54.4841 22.7978 55.0811 23.176 55.6247C23.7307 56.4223 24.4693 56.9925 25.3743 57.3414C25.6975 57.4656 26.0347 57.5531 26.3797 57.5954L26.73 57.688" fill="#FD4F31"/>
<path fill-rule="evenodd" clip-rule="evenodd" d="M23.34 43.8786C24.4518 43.6141 25.5639 43.3499 26.6758 43.086C27.1641 42.9703 27.6527 42.8559 28.141 42.7397C28.3851 42.6815 28.6298 42.6262 28.872 42.5607C29.0877 42.5026 29.1142 42.4311 29.0033 42.2367C28.8429 41.9555 28.6798 41.6761 28.5175 41.3958L27.0881 38.9345L25.6593 36.473C25.1747 35.638 24.6895 34.8031 24.2046 33.9685L22.9593 31.8261C22.7797 31.5174 22.5618 31.2077 22.3815 30.8992C22.3479 30.843 22.5 30.7759 22.2178 30.7459V44.1238C22.2178 44.1148 22.3456 44.1072 22.3888 44.0967L23.34 43.8786ZM57.5633 53.4409C57.1274 53.5959 56.6914 53.752 56.2558 53.908L53.2794 54.9753C52.7282 55.1731 52.1781 55.3732 51.6265 55.5703C50.5026 55.9713 49.3781 56.371 48.2538 56.7713C47.6024 57.0033 46.9506 57.2901 46.2995 57.5232C46.1211 57.5873 45.9452 57.782 45.7685 57.782H53.2456L53.4064 57.6897C53.5967 57.6815 53.7838 57.6251 53.9707 57.5909C54.7381 57.4507 55.4254 57.1187 56.0343 56.6335C56.502 56.2607 56.8824 55.8048 57.1805 55.2849C57.487 54.7497 57.6691 54.1708 57.7566 53.5628C57.7642 53.5103 57.7806 53.4508 57.7366 53.3966C57.6745 53.3918 57.6197 53.4209 57.5633 53.4409ZM56.9211 43.4007C56.5914 42.9497 56.2609 42.4995 55.9318 42.0481C55.4776 41.4252 55.0243 40.8017 54.5708 40.1784C54.3864 39.9255 54.1996 39.6746 54.0198 39.4189C53.9656 39.3418 53.9038 39.3212 53.8194 39.3441L53.7711 39.3579C52.9362 39.5609 52.101 39.7632 51.2658 39.9656L49.7693 40.3289L46.8417 41.0399C45.8766 41.2744 44.9116 41.5093 43.9463 41.7433L40.9368 42.4721C39.9498 42.7117 38.9633 42.9522 37.9765 43.1921L35.1139 43.887C34.6095 44.0095 34.1051 44.1315 33.6012 44.2545C33.527 44.2726 33.4471 44.2771 33.3681 44.3369L33.4356 44.4654C34.3361 46.022 35.2392 47.5771 36.1447 49.1308C36.6736 50.0377 37.204 50.944 37.7338 51.8507C38.0383 52.3714 38.3409 52.8928 38.648 53.4121C38.9886 53.9893 39.3323 54.5646 39.6791 55.1381C39.7833 55.3095 39.9015 55.4732 40.0206 55.6346C40.1004 55.7431 40.2007 55.8349 40.3159 55.9047C40.4361 55.9773 40.5657 56.0001 40.7023 55.9694C40.7729 55.9533 40.842 55.9301 40.9103 55.9064L41.1615 55.8133C42.0752 55.5008 42.9886 55.1884 43.9025 54.877C44.6155 54.6343 45.3293 54.3927 46.0429 54.1513C46.7511 53.9111 47.4598 53.6721 48.1683 53.433L50.2779 52.7206C50.9971 52.4776 51.716 52.2345 52.4349 51.9909C53.3172 51.6915 54.1993 51.3909 55.0822 51.0919C55.9332 50.804 56.7851 50.5178 57.6364 50.2305C57.6886 50.213 57.7462 50.2057 57.7893 50.1484L57.7947 50.0245C57.795 48.2589 57.7944 46.4931 57.7964 44.7276C57.7982 44.6385 57.7694 44.5516 57.7148 44.4812C57.4472 44.123 57.185 43.7611 56.9211 43.4007ZM56.7746 26.765C56.5765 26.514 56.3241 26.4344 56.0148 26.5152C55.8801 26.5505 55.7418 26.5728 55.6047 26.5979C55.1547 26.6803 54.7043 26.7613 54.2543 26.8429C53.5956 26.9626 52.937 27.0834 52.2783 27.2019C51.7566 27.2956 51.2347 27.3879 50.7129 27.4794L48.6191 27.8457C48.5313 27.861 48.4426 27.8762 48.358 27.9033C48.2346 27.9428 48.1991 28.0202 48.2555 28.1362C48.3015 28.231 48.3588 28.3216 48.4209 28.4069C48.8539 29.0036 49.2889 29.5988 49.7238 30.1944C50.3233 31.0155 50.9231 31.8363 51.5229 32.6568C52.0304 33.3512 52.5385 34.0455 53.0463 34.7396C53.4454 35.2849 53.8445 35.8303 54.2442 36.3753L54.3229 36.4707L57.7865 35.6146L57.7947 35.4351C57.795 33.0328 57.7944 30.6305 57.7964 28.2279C57.7964 28.1218 57.7707 28.0365 57.7038 27.9524C57.4125 27.5847 57.1266 27.2126 56.8384 26.8423L56.7746 26.765ZM57.7064 38.4056C57.1825 38.5315 56.6566 38.6511 56.1201 38.7931C56.1768 38.8939 57.6485 40.8804 57.734 40.9747L57.7876 41.0043L57.7936 40.8832L57.7939 40.0469C57.7941 39.5617 57.7953 39.0765 57.7941 38.5913C57.7941 38.5323 57.8108 38.4688 57.7701 38.409L57.7064 38.4056Z" fill="#FD4F31"/>
</svg>
