<svg width="80" height="80" viewBox="0 0 80 80" fill="none" xmlns="http://www.w3.org/2000/svg">
<rect width="80" height="80" rx="10.3226" fill="white"/>
<rect x="0.322581" y="0.322581" width="79.3548" height="79.3548" rx="10" stroke="white" stroke-opacity="0.08" stroke-width="0.645161"/>
<path d="M22.5 39.9746V57.6158H57.7823V22.3335H22.5V39.9746ZM50.9319 38.5633C51.7769 38.7594 52.545 39.2014 53.1391 39.8335C53.4662 40.174 53.7506 40.5532 53.9859 40.9625C53.9859 41.0077 52.4617 42.0379 51.5331 42.6137C51.4992 42.6363 51.3637 42.4895 51.2141 42.2666C51.0446 41.974 50.8037 41.7292 50.514 41.555C50.2243 41.3808 49.8951 41.2828 49.5573 41.2702C48.4875 41.1968 47.7988 41.7585 47.8044 42.6815C47.7956 42.9113 47.8482 43.1393 47.9569 43.342C48.1911 43.8303 48.6286 44.121 50.0004 44.7137C52.5266 45.8004 53.6077 46.5174 54.2794 47.5363C55.0302 48.6653 55.1968 50.4887 54.6887 51.8379C54.1242 53.3057 52.7411 54.302 50.7851 54.6323C49.8917 54.7346 48.989 54.7251 48.098 54.6041C46.7381 54.3835 45.4837 53.736 44.5161 52.7553C44.1915 52.3968 43.5593 51.4625 43.5988 51.3948C43.7018 51.3183 43.8103 51.2494 43.9234 51.1887L45.2218 50.4436L46.2351 49.8565L46.4468 50.1698C46.804 50.6808 47.2587 51.1163 47.7847 51.4512C48.9137 52.044 50.4548 51.9621 51.2169 51.2762C51.4728 51.0249 51.6324 50.6918 51.668 50.3349C51.7036 49.978 51.6129 49.6199 51.4117 49.323C51.1294 48.9307 50.5649 48.6004 48.9871 47.9117C47.1665 47.127 46.3819 46.6416 45.6649 45.8682C45.2174 45.3578 44.8869 44.7557 44.6968 44.1041C44.555 43.3596 44.534 42.5971 44.6347 41.846C45.0101 40.0875 46.3282 38.8597 48.2532 38.4956C49.1447 38.3853 50.0477 38.41 50.9319 38.569V38.5633ZM42.6504 40.0424V41.4875H38.0694V54.5363H34.8206V41.4847H30.2282V40.0734C30.2159 39.5876 30.2291 39.1014 30.2677 38.617C30.2847 38.5944 33.0903 38.5831 36.4774 38.5887H42.6335L42.6504 40.0424Z" fill="#007ACC"/>
</svg>
