<svg width="40" height="40" viewBox="0 0 40 40" fill="none" xmlns="http://www.w3.org/2000/svg">
<rect x="0.454545" y="0.454545" width="39.0909" height="39.0909" rx="19.5455" stroke="black" stroke-width="0.909091"/>
<path d="M23.2147 18.1818C23.2147 19.9391 21.7902 21.3636 20.0329 21.3636C18.2756 21.3636 16.8511 19.9391 16.8511 18.1818C16.8511 16.4245 18.2756 15 20.0329 15C21.7902 15 23.2147 16.4245 23.2147 18.1818Z" stroke="black" stroke-width="1.36364" stroke-linejoin="round"/>
<path d="M19.9998 10.9092C15.9832 10.9092 12.7271 14.1981 12.7271 18.2552C12.7271 20.5751 13.6361 22.3789 15.4543 23.9901C16.7359 25.1257 19.0676 27.5618 19.9998 29.0909C20.9791 27.5922 23.2637 25.1257 24.5452 23.9901C26.3634 22.3789 27.2725 20.5751 27.2725 18.2552C27.2725 14.1981 24.0164 10.9092 19.9998 10.9092Z" stroke="black" stroke-width="1.36364" stroke-linejoin="round"/>
</svg>
