<svg width="133" height="39" viewBox="0 0 133 39" fill="none" xmlns="http://www.w3.org/2000/svg">
<g clip-path="url(#clip0_145_3265)">
<path d="M8.57074 25.9559C7.87594 25.258 7.32629 24.4305 6.95327 23.5209C6.58025 22.6113 6.3912 21.6373 6.39693 20.6549C6.39441 19.6724 6.5887 18.6993 6.96844 17.7925C7.34818 16.8857 7.90576 16.0633 8.60856 15.3735C8.90962 15.1071 9.15289 14.7824 9.32348 14.4193C9.49407 14.0561 9.58838 13.6621 9.60066 13.2614C9.61293 12.8607 9.5429 12.4617 9.39485 12.0888C9.2468 11.716 9.02385 11.3772 8.73965 11.0931C8.45545 10.809 8.11598 10.5856 7.74203 10.4366C7.36808 10.2877 6.96751 10.2162 6.56486 10.2267C6.16221 10.2372 5.76594 10.3294 5.40032 10.4976C5.0347 10.6658 4.70743 10.9065 4.43853 11.205C1.91285 13.704 0.487905 17.0992 0.477113 20.6438C0.46632 24.1884 1.87056 27.5921 4.38098 30.1063C4.649 30.4044 4.9752 30.645 5.33969 30.8135C5.70419 30.982 6.09935 31.0749 6.50108 31.0864C6.9028 31.098 7.30269 31.028 7.67635 30.8807C8.05001 30.7334 8.38961 30.5119 8.67447 30.2297C8.95932 29.9476 9.18345 29.6106 9.33319 29.2394C9.48294 28.8682 9.55516 28.4705 9.54545 28.0706C9.53575 27.6707 9.44432 27.277 9.27674 26.9134C9.10917 26.5498 8.86895 26.224 8.57074 25.9559Z" fill="black"/>
<path d="M8.60847 15.3732C10.0249 13.9777 11.9394 13.1979 13.9324 13.205C15.9254 13.212 17.8344 14.0053 19.2407 15.4109C19.5078 15.7121 19.834 15.9558 20.1991 16.1269C20.5643 16.298 20.9608 16.393 21.3642 16.406C21.7676 16.419 22.1695 16.3497 22.545 16.2025C22.9205 16.0552 23.2618 15.833 23.5479 15.5496C23.834 15.2662 24.0588 14.9276 24.2085 14.5545C24.3583 14.1814 24.4298 13.7818 24.4186 13.3802C24.4075 12.9787 24.3139 12.5836 24.1437 12.2193C23.9735 11.8551 23.7302 11.5293 23.4289 11.262C22.1904 10.0135 20.7163 9.02079 19.0913 8.34089C17.4663 7.66099 15.7223 7.30731 13.9596 7.30016C12.1968 7.29301 10.45 7.63254 8.81948 8.29924C7.18895 8.96594 5.7068 9.94668 4.45817 11.1851C4.15603 11.4501 3.91139 11.7737 3.73922 12.136C3.56705 12.4983 3.47098 12.8918 3.45689 13.2924C3.4428 13.6929 3.51098 14.0921 3.65726 14.4656C3.80354 14.839 4.02484 15.1788 4.30762 15.4641C4.59041 15.7495 4.92872 15.9744 5.30186 16.1251C5.675 16.2759 6.07511 16.3492 6.47772 16.3407C6.88032 16.3322 7.27695 16.242 7.64333 16.0757C8.0097 15.9093 8.33811 15.6703 8.60847 15.3732Z" fill="black"/>
<path d="M19.2224 25.9932C18.5215 26.6862 17.6902 27.2347 16.776 27.6073C15.8618 27.98 14.8827 28.1695 13.8948 28.165C12.9072 28.1665 11.9291 27.9718 11.018 27.5924C10.1069 27.2131 9.28093 26.6566 8.58853 25.9556C8.32094 25.656 7.99471 25.4138 7.62983 25.244C7.26495 25.0743 6.86908 24.9804 6.46648 24.9682C6.06388 24.956 5.663 25.0257 5.28841 25.173C4.91381 25.3204 4.57338 25.5423 4.28794 25.8251C4.00251 26.108 3.77809 26.4459 3.62842 26.8181C3.47875 27.1903 3.40699 27.589 3.41752 27.9897C3.42804 28.3905 3.52065 28.7849 3.68966 29.1488C3.85866 29.5127 4.10052 29.8384 4.40041 30.1061C5.641 31.3545 7.11693 32.347 8.74361 33.0267C10.3703 33.7063 12.1157 34.0598 13.8799 34.0668C15.6441 34.0738 17.3923 33.7342 19.0244 33.0674C20.6565 32.4007 22.1403 31.4199 23.3908 30.1814C23.6671 29.9089 23.8868 29.585 24.0373 29.2281C24.1878 28.8712 24.2662 28.4883 24.2681 28.1012C24.2699 27.7141 24.1951 27.3305 24.048 26.9721C23.9009 26.6138 23.6843 26.2879 23.4106 26.0129C23.1369 25.7379 22.8114 25.5192 22.4528 25.3694C22.0942 25.2196 21.7095 25.1416 21.3206 25.1397C20.9317 25.1379 20.5462 25.2124 20.1862 25.3588C19.8262 25.5052 19.4987 25.7208 19.2224 25.9932Z" fill="black"/>
<path d="M8.60859 15.3731C8.19374 15.7855 7.66517 16.066 7.08993 16.179C6.51468 16.292 5.91868 16.2324 5.37753 16.0077C4.83638 15.783 4.37446 15.4035 4.05037 14.9171C3.72628 14.4308 3.55461 13.8596 3.55716 13.276C3.5597 12.6925 3.73633 12.1228 4.06465 11.6393C4.39297 11.1557 4.85818 10.7802 5.40127 10.5602C5.94436 10.3402 6.54086 10.2857 7.1151 10.4037C7.68934 10.5216 8.21544 10.8067 8.62668 11.2226C9.17455 11.7768 9.48009 12.5241 9.4767 13.3016C9.47331 14.0791 9.16127 14.8237 8.60859 15.3731Z" fill="black"/>
<path d="M8.55112 30.1061C8.13611 30.5184 7.60743 30.7986 7.03214 30.9114C6.45685 31.0242 5.86087 30.9643 5.31981 30.7394C4.77875 30.5146 4.31698 30.1348 3.99308 29.6483C3.66918 29.1619 3.49775 28.5906 3.50052 28.0071C3.5033 27.4235 3.68016 26.8539 4.00867 26.3705C4.33718 25.8871 4.80253 25.5117 5.34571 25.2919C5.88888 25.0722 6.4854 25.0179 7.05959 25.1361C7.63379 25.2543 8.15978 25.5395 8.57085 25.9556C9.1185 26.5101 9.42375 27.2575 9.42006 28.0349C9.41636 28.8124 9.10402 29.5569 8.55112 30.1061Z" fill="black"/>
<path d="M36.5996 23.5419C37.453 22.9003 37.5664 23.2588 38.2867 23.9756C38.6468 24.334 39.6317 24.9576 38.9872 25.4846C37.6421 26.5778 36.4286 27.0688 34.7119 27.0688C30.8263 27.0508 28.0786 24.1638 28.299 20.3341C28.3927 18.6189 29.0751 16.9954 30.4218 15.8825C31.6534 14.8449 33.1876 14.3932 34.799 14.4308C35.5888 14.4285 36.3713 14.582 37.1011 14.8825C37.5954 15.0602 38.0612 15.3083 38.484 15.619C39.3374 16.2737 38.9395 16.6566 38.2752 17.3162C38.1239 17.4668 37.9726 17.619 37.8394 17.7695C37.499 18.1083 37.2705 18.3538 36.8166 18.033C35.9451 17.4291 34.8434 17.1083 33.8026 17.3784C30.4481 18.2262 30.5994 24.1687 34.7135 24.1884C35.3955 24.1794 36.0567 23.9528 36.5996 23.5419ZM129.845 27.1425C129.71 27.1431 129.577 27.1172 129.452 27.0663C129.328 27.0154 129.215 26.9405 129.12 26.8458C129.024 26.7512 128.949 26.6387 128.898 26.5149C128.846 26.3911 128.82 26.2584 128.82 26.1245L128.878 12.9579C128.877 12.8239 128.903 12.6912 128.954 12.5673C129.006 12.4434 129.081 12.3308 129.176 12.236C129.271 12.1412 129.384 12.0661 129.508 12.015C129.633 11.9639 129.766 11.9378 129.901 11.9383H131.001C131.135 11.9378 131.269 11.964 131.393 12.0152C131.518 12.0664 131.631 12.1416 131.726 12.2366C131.821 12.3316 131.896 12.4443 131.948 12.5684C131.999 12.6925 132.024 12.8254 132.024 12.9595L131.966 26.1261C131.967 26.26 131.941 26.3927 131.889 26.5165C131.838 26.6403 131.763 26.7527 131.668 26.8474C131.573 26.942 131.46 27.017 131.335 27.0679C131.211 27.1189 131.078 27.1447 130.943 27.1441L129.845 27.1425ZM124.09 25.6155C122.896 26.7284 121.758 27.3127 120.071 27.3127C116.661 27.293 115.029 24.483 115.029 21.3325L115.049 15.9758C115.049 15.8419 115.075 15.7093 115.126 15.5856C115.178 15.4619 115.253 15.3495 115.348 15.255C115.444 15.1605 115.557 15.0857 115.681 15.035C115.806 14.9843 115.939 14.9586 116.074 14.9595H117.174C117.308 14.9588 117.441 14.9847 117.566 15.0356C117.69 15.0866 117.803 15.1615 117.898 15.2562C117.993 15.3508 118.069 15.4633 118.12 15.5871C118.171 15.7109 118.197 15.8436 118.196 15.9774L118.178 21.3341C118.178 23.0886 119.125 24.4649 120.983 24.4649C122.842 24.4649 123.978 22.9183 123.996 21.1917V19.2785C123.981 19.2042 123.975 19.1284 123.978 19.0526L123.996 16.0151C123.995 15.8812 124.021 15.7485 124.072 15.6247C124.124 15.5009 124.199 15.3885 124.294 15.2938C124.389 15.1992 124.502 15.1242 124.627 15.0733C124.751 15.0223 124.884 14.9964 125.019 14.9971H126.104C126.238 14.9964 126.372 15.0223 126.496 15.0733C126.621 15.1242 126.734 15.1992 126.829 15.2938C126.924 15.3885 126.999 15.5009 127.05 15.6247C127.101 15.7485 127.127 15.8812 127.127 16.0151L127.091 26.1261C127.088 26.3937 126.979 26.6492 126.787 26.8367C126.595 27.0242 126.337 27.1283 126.068 27.1261H125.139C124.875 27.1179 124.624 27.0099 124.437 26.8241C124.251 26.6383 124.142 26.3887 124.134 26.1261L124.09 25.6155ZM111.006 14.9971H113.129C113.263 14.999 113.396 15.0274 113.519 15.0807C113.643 15.134 113.755 15.2111 113.848 15.3076C113.941 15.404 114.015 15.518 114.064 15.6428C114.113 15.7676 114.136 15.9008 114.133 16.0347V16.7319C114.131 17.0007 114.023 17.2579 113.832 17.4482C113.642 17.6386 113.384 17.7469 113.114 17.7499H110.986L110.948 26.0688C110.949 26.2028 110.923 26.3355 110.872 26.4594C110.82 26.5833 110.745 26.6959 110.65 26.7907C110.555 26.8855 110.442 26.9606 110.318 27.0117C110.193 27.0628 110.06 27.0889 109.925 27.0885H108.827C108.692 27.0889 108.559 27.0628 108.434 27.0117C108.31 26.9606 108.197 26.8855 108.102 26.7908C108.006 26.696 107.931 26.5834 107.88 26.4595C107.828 26.3356 107.802 26.2029 107.803 26.0688L107.84 14.5634C107.84 12.0545 109.281 10.0725 111.859 9.84666C111.935 9.84666 111.991 9.82865 112.066 9.82865C112.218 9.81883 112.37 9.81883 112.522 9.82865H113.508C113.643 9.83057 113.776 9.85893 113.899 9.91212C114.022 9.9653 114.134 10.0423 114.227 10.1385C114.321 10.2348 114.394 10.3486 114.443 10.4732C114.492 10.5978 114.516 10.7308 114.513 10.8646V11.5062C114.511 11.7758 114.403 12.0339 114.212 12.2247C114.02 12.4155 113.761 12.5237 113.49 12.5258H112.694C111.481 12.5258 110.97 13.4489 110.95 14.5814L111.006 14.9971ZM103.387 14.9595H105.714C105.983 14.9621 106.24 15.0707 106.428 15.2616C106.617 15.4524 106.721 15.7099 106.719 15.9774V16.6746C106.716 16.9422 106.607 17.1977 106.415 17.3852C106.224 17.5727 105.965 17.6768 105.696 17.6746H103.368L103.35 22.7645C103.35 23.7465 103.823 24.3111 104.808 24.3111H105.282C105.551 24.3141 105.807 24.4231 105.996 24.6143C106.184 24.8054 106.289 25.063 106.286 25.3307V26.0377C106.283 26.3051 106.174 26.5605 105.982 26.7478C105.791 26.9352 105.532 27.0395 105.264 27.0377H104.372C104.208 27.041 104.043 27.0344 103.879 27.0181C101.358 26.8544 100.24 25.2276 100.24 22.7743C100.26 19.4733 100.26 16.1918 100.278 12.8908C100.279 12.7582 100.307 12.6271 100.359 12.5051C100.411 12.3831 100.487 12.2725 100.582 12.1796C100.677 12.0867 100.79 12.0134 100.913 11.9639C101.037 11.9143 101.169 11.8895 101.302 11.8908H102.383C102.652 11.8934 102.908 12.002 103.097 12.1929C103.285 12.3838 103.39 12.6412 103.387 12.9088V14.9595ZM69.6786 14.8269H72.0054C72.2742 14.8295 72.5309 14.9381 72.7193 15.129C72.9077 15.3199 73.0122 15.5773 73.0101 15.8449V16.5453C73.007 16.8127 72.8977 17.0681 72.7061 17.2555C72.5144 17.4428 72.256 17.5471 71.9873 17.5453H69.6523V22.6368C69.6523 23.6188 70.1259 24.1835 71.1109 24.1835H71.5861C71.7191 24.1847 71.8505 24.2121 71.9729 24.2639C72.0953 24.3158 72.2063 24.3911 72.2994 24.4857C72.3926 24.5802 72.4661 24.6921 72.5158 24.8149C72.5655 24.9377 72.5904 25.069 72.5891 25.2014V25.8986C72.5865 26.1662 72.4773 26.4217 72.2856 26.6092C72.0938 26.7967 71.8351 26.9008 71.5663 26.8986H70.8658C68.1165 26.8806 66.5248 25.7104 66.5248 22.6434C66.5445 19.3423 66.5445 16.0593 66.5626 12.7582C66.5657 12.4905 66.6752 12.235 66.8672 12.0475C67.0592 11.8601 67.3181 11.756 67.5871 11.7582H68.6674C68.9362 11.7613 69.1928 11.8703 69.3808 12.0615C69.5689 12.2527 69.673 12.5103 69.6704 12.7778L69.6786 14.8269ZM55.9961 16.2606C57.1143 15.223 58.3278 14.5634 59.8998 14.5634C63.3118 14.5814 65.0745 17.3456 65.0548 20.542L65.0367 25.8986C65.0371 26.0326 65.0109 26.1654 64.9596 26.2893C64.9083 26.4132 64.8328 26.5258 64.7376 26.6206C64.6424 26.7153 64.5293 26.7904 64.4048 26.8415C64.2803 26.8926 64.1469 26.9187 64.0123 26.9182H62.9139C62.7792 26.9187 62.6458 26.8926 62.5213 26.8415C62.3968 26.7904 62.2837 26.7153 62.1885 26.6206C62.0933 26.5258 62.0179 26.4132 61.9665 26.2893C61.9152 26.1654 61.889 26.0326 61.8894 25.8986L61.9092 20.5796C61.9092 18.8252 60.962 17.4488 59.1039 17.4488C57.2458 17.4488 56.1096 18.9774 56.0915 20.7122L56.0718 25.8986C56.0692 26.1662 55.96 26.4217 55.7682 26.6092C55.5765 26.7967 55.3178 26.9008 55.049 26.8986H53.9687C53.6999 26.896 53.4431 26.7874 53.2547 26.5965C53.0664 26.4056 52.9618 26.1482 52.964 25.8806C52.9821 22.6548 52.9821 19.4111 53.0018 16.1853V15.7516C53.0027 15.4843 53.11 15.2283 53.3001 15.0397C53.4903 14.851 53.7479 14.7451 54.0164 14.7451H54.9454C55.2094 14.7529 55.4604 14.8607 55.6471 15.0466C55.8339 15.2325 55.9422 15.4823 55.9501 15.745L55.9961 16.2606ZM89.7691 16.3915C90.8873 15.3555 92.0991 14.6943 93.6728 14.6943C97.0847 14.714 98.8458 17.4864 98.8277 20.6745L98.808 26.0377C98.8087 26.1717 98.7827 26.3044 98.7315 26.4283C98.6804 26.5522 98.6051 26.6648 98.51 26.7596C98.4149 26.8544 98.3019 26.9295 98.1775 26.9806C98.0531 27.0317 97.9198 27.0578 97.7852 27.0574H96.6868C96.5522 27.0578 96.4188 27.0317 96.2943 26.9806C96.1698 26.9295 96.0567 26.8544 95.9615 26.7597C95.8663 26.6649 95.7908 26.5523 95.7395 26.4284C95.6882 26.3045 95.662 26.1718 95.6624 26.0377L95.6821 20.7187C95.6821 18.9643 94.7333 17.5879 92.8769 17.5879C91.0204 17.5879 89.8826 19.1148 89.8628 20.8513L89.8365 26.0377C89.8335 26.3054 89.7239 26.561 89.5319 26.7484C89.3399 26.9359 89.0811 27.0399 88.8121 27.0377H87.7318C87.4633 27.0347 87.2069 26.9258 87.0189 26.735C86.8309 26.5442 86.7265 26.287 86.7287 26.0197L86.7666 15.8891C86.767 15.7559 86.7939 15.6241 86.8457 15.5014C86.8975 15.3786 86.9731 15.2672 87.0684 15.1737C87.1636 15.0801 87.2764 15.0062 87.4005 14.9563C87.5245 14.9063 87.6572 14.8812 87.791 14.8825H88.72C88.985 14.8912 89.2365 15.0006 89.423 15.188C89.6096 15.3755 89.7169 15.6269 89.7231 15.8907L89.7691 16.3915ZM45.6779 14.4685C41.9815 14.4488 39.367 17.1083 39.3473 20.7678C39.3292 24.4649 41.9058 27.0885 45.6401 27.1065C49.3744 27.1245 51.9889 24.5222 52.007 20.8006C52.0267 17.1656 49.3547 14.4865 45.6779 14.4685ZM76.3612 22.0329C76.6259 23.7301 78.2571 24.4273 79.8488 24.4469C80.6468 24.44 81.4344 24.2666 82.1608 23.938C82.2776 23.8906 82.3913 23.8359 82.5011 23.7743C82.881 23.5664 83.2214 23.4355 83.5634 23.7743C83.7525 23.9625 83.9235 24.1524 84.1126 24.3209C84.2912 24.4905 84.4561 24.6739 84.6059 24.8692C85.1173 25.5091 84.7572 25.6613 84.1702 26.0574C82.9188 26.8871 81.2893 27.3012 79.7913 27.3012C75.7742 27.2832 73.1202 24.8463 73.1202 20.8136C73.14 17.002 75.7923 14.475 79.6203 14.493C83.5256 14.5127 85.7421 16.7957 85.7997 20.6811C85.8178 21.7367 85.8556 22.0771 84.7572 22.0771L76.3612 22.0329ZM45.6779 17.3162C47.592 17.3162 48.8614 18.9774 48.8614 20.8071C48.8614 22.7121 47.6676 24.244 45.6582 24.244C43.6488 24.244 42.4748 22.6974 42.4748 20.7924C42.4748 18.8873 43.6883 17.3162 45.6779 17.3162ZM76.4451 19.4111L82.7379 19.4291C82.5094 17.8628 81.2021 17.2409 79.7058 17.2409C78.2094 17.2409 76.9104 17.9397 76.4451 19.4111Z" fill="black"/>
</g>
<defs>
<clipPath id="clip0_145_3265">
<rect width="132.212" height="38.9336" fill="white" transform="translate(0.477051)"/>
</clipPath>
</defs>
</svg>
