<svg width="145" height="39" viewBox="0 0 145 39" fill="none" xmlns="http://www.w3.org/2000/svg">
<g clip-path="url(#clip0_145_3260)">
<path d="M61.063 23.4827V17.718C61.063 17.5675 60.9621 17.4673 60.8108 17.4673H58.8937V15.2115H60.8108C60.9621 15.2115 61.063 15.1112 61.063 14.9609V11.3517H63.7871V14.9609C63.7871 15.1112 63.8881 15.2115 64.0394 15.2115H66.7131V17.4673H64.0394C63.8881 17.4673 63.7871 17.5675 63.7871 17.718V22.8311C63.7871 25.2373 64.6448 25.4377 65.7546 25.4377C66.1582 25.4377 66.7635 25.3876 67.1167 25.3375V27.6935C66.6627 27.7436 65.906 27.8439 65.0484 27.8439C63.9889 27.7938 61.063 27.7938 61.063 23.4827ZM135.12 24.8863L137.34 23.7333C137.844 24.8863 138.802 25.6382 139.912 25.6382C140.77 25.6382 141.729 25.2873 141.729 24.2346C141.729 23.5329 141.275 23.1318 140.215 22.781L138.702 22.2797C136.583 21.628 135.523 20.4249 135.523 18.7205C135.523 16.565 137.34 14.9609 139.812 14.9609C141.779 14.9609 143.444 16.0136 144.251 17.6678L142.031 18.8709C141.527 17.8182 140.72 17.2167 139.761 17.2167C138.802 17.2167 138.147 17.718 138.147 18.4699C138.147 19.1215 138.651 19.6229 139.66 19.9235L141.174 20.4249C143.393 21.1267 144.453 22.3297 144.453 23.984C144.453 26.5907 142.182 27.9442 139.912 27.9442C137.642 27.8941 135.826 26.7411 135.12 24.8863ZM126.746 22.6305C126.695 22.6806 126.645 22.7308 126.645 22.781V27.5933H123.87V9.79761H126.645V19.5226C126.645 19.6229 126.695 19.7231 126.796 19.7231C126.897 19.7732 126.998 19.7231 127.048 19.6729L131.538 15.1614H134.918L129.672 20.4249C129.571 20.5251 129.571 20.6254 129.672 20.7256L135.372 27.5933H131.992L127.603 22.1794C127.553 22.1292 127.502 22.0791 127.452 22.0791C127.401 22.0791 127.351 22.0791 127.301 22.1292L126.746 22.6305ZM122.508 16.8658L120.742 18.52C119.733 17.7681 118.724 17.4172 117.615 17.4172C115.294 17.4172 113.579 19.1215 113.579 21.4275C113.579 23.7333 115.294 25.4377 117.615 25.4377C118.624 25.4377 119.683 25.0868 120.793 24.3349L122.357 25.9892C120.087 27.6434 118.876 27.9442 117.312 27.9442C115.445 27.9442 113.781 27.2925 112.57 26.0894C111.41 24.9365 110.754 23.2321 110.754 21.4275C110.754 17.6678 113.528 14.9107 117.362 14.9107C118.624 14.9107 120.49 15.1112 122.508 16.8658ZM109.493 11.502C109.493 12.4044 108.736 13.1563 107.828 13.1563C106.92 13.1563 106.163 12.4044 106.163 11.502C106.163 10.5997 106.92 9.84775 107.828 9.84775C108.736 9.84775 109.493 10.5997 109.493 11.502ZM109.24 27.5933H106.466V15.2115H109.24V27.5933ZM100.412 22.1794V27.6434H97.6374V15.2617H100.362V16.7655C100.362 16.8658 100.412 16.9661 100.513 17.0161C100.614 17.0663 100.715 17.0161 100.765 16.9159C101.471 15.7629 102.783 15.011 104.196 15.011C104.397 15.011 104.549 15.011 104.65 15.0612V17.8683C104.498 17.8182 104.246 17.8182 103.994 17.8182C101.774 17.7681 100.412 19.4724 100.412 22.1794ZM85.53 21.4275C85.53 19.1716 87.2453 17.4172 89.4649 17.4172C91.6846 17.4172 93.3998 19.1716 93.3998 21.4275C93.3998 23.6832 91.6846 25.4377 89.4649 25.4377C87.2453 25.4377 85.53 23.6832 85.53 21.4275ZM85.7823 26.1395C85.8327 26.1395 85.8327 26.1395 85.8831 26.1395C85.9336 26.1395 86.0345 26.1897 86.0849 26.2398C87.0434 27.3426 88.456 27.9442 90.0704 27.9442C93.5007 27.9442 96.124 25.0868 96.124 21.4275C96.124 19.6229 95.5187 18.0188 94.3583 16.7655C93.2486 15.5624 91.6846 14.9107 90.0198 14.9107C88.456 14.9107 86.993 15.5624 86.0345 16.7153C85.9841 16.7655 85.8831 16.8156 85.7823 16.7655C85.6814 16.7153 85.6309 16.6653 85.6309 16.565V9.84775H82.8563V27.6434H85.6309V26.3901C85.6309 26.2398 85.6814 26.1897 85.7823 26.1395ZM74.2802 25.4377C72.111 25.4377 70.3453 23.6832 70.3453 21.4275C70.3453 19.1716 72.0606 17.4172 74.2802 17.4172C76.4999 17.4172 78.2151 19.1716 78.2151 21.4275C78.2151 23.6832 76.4495 25.4377 74.2802 25.4377ZM80.788 27.5933V15.2115H78.0639V16.4647C78.0639 16.565 78.0133 16.6653 77.9125 16.6653C77.8116 16.7153 77.7107 16.6653 77.6602 16.6151C76.7522 15.5123 75.3396 14.9107 73.6749 14.9107C70.2445 14.9107 67.6212 17.7681 67.6212 21.4275C67.6212 25.0868 70.2949 27.9442 73.6749 27.9442C75.2387 27.9442 76.7017 27.2925 77.6602 26.1395C77.7107 26.0393 77.8116 26.0393 77.9125 26.0894C78.0133 26.1395 78.0639 26.1897 78.0639 26.29V27.6434H80.788V27.5933ZM50.9231 25.4377C48.7538 25.4377 46.9882 23.6832 46.9882 21.4275C46.9882 19.1716 48.7034 17.4172 50.9231 17.4172C53.0923 17.4172 54.858 19.1716 54.858 21.4275C54.858 23.6832 53.0923 25.4377 50.9231 25.4377ZM57.4309 27.5933V15.2115H54.7066V16.4647C54.7066 16.565 54.6562 16.6653 54.5553 16.6653C54.4544 16.7153 54.3535 16.6653 54.3031 16.6151C53.395 15.5123 51.9824 14.9107 50.3178 14.9107C46.8872 14.9107 44.264 17.7681 44.264 21.4275C44.264 25.0868 46.9378 27.9442 50.3178 27.9442C51.8816 27.9442 53.3446 27.2925 54.3031 26.1395C54.3535 26.0393 54.4544 26.0393 54.5553 26.0894C54.6562 26.1395 54.7066 26.1897 54.7066 26.29V27.6434H57.4309V27.5933ZM36.1924 25.4377C33.9727 25.4377 32.2575 23.6832 32.2575 21.4275C32.2575 19.1716 33.9727 17.4172 36.1924 17.4172C38.3617 17.4172 40.1273 19.1716 40.1273 21.4275C40.1273 23.6832 38.3617 25.4377 36.1924 25.4377ZM42.7001 27.5933V9.84775H39.9255V16.5148C39.9255 16.6151 39.8751 16.7153 39.7742 16.7153C39.6733 16.7655 39.5724 16.7153 39.522 16.6653C38.5634 15.5624 37.1509 14.9609 35.5366 14.9609C32.1062 14.9609 29.4829 17.8182 29.4829 21.4776C29.4829 23.2822 30.0883 24.8863 31.2486 26.1395C32.3584 27.3426 33.9223 27.9942 35.587 27.9942C37.1509 27.9942 38.6139 27.3426 39.5724 26.1897C39.6229 26.1395 39.7237 26.0894 39.8246 26.1395C39.9255 26.1897 39.976 26.2398 39.976 26.3401V27.6434H42.7001V27.5933Z" fill="black"/>
<path d="M22.4601 16.8405L12.1013 22.7157L1.08196 16.4559L0.560547 16.7356V21.2819L12.1013 27.8566L22.4601 21.9813V24.3944L12.1013 30.2697L1.08196 24.0097L0.560547 24.2895V25.0589L12.1013 31.6335L23.6768 25.0589V20.5125L23.1554 20.2327L12.1013 26.4927L1.77716 20.6174V18.2394L12.1013 24.0797L23.6768 17.505V13.0286L23.0858 12.7139L12.1013 18.9388L2.33331 13.3783L12.1013 7.85279L20.1659 12.3991L20.8959 12.0144V11.4549L12.1013 6.48889L0.560547 13.0286V13.728L12.1013 20.3027L22.4601 14.4275V16.8405Z" fill="black"/>
</g>
<defs>
<clipPath id="clip0_145_3260">
<rect width="144.379" height="38.9336" fill="white" transform="translate(0.560547)"/>
</clipPath>
</defs>
</svg>
