<svg width="40" height="40" viewBox="0 0 40 40" fill="none" xmlns="http://www.w3.org/2000/svg">
<rect x="0.454545" y="0.454545" width="39.0909" height="39.0909" rx="19.5455" stroke="black" stroke-width="0.909091"/>
<path d="M19.9998 11.3633L20.3506 10.7786C20.1347 10.6491 19.8649 10.6491 19.649 10.7786L19.9998 11.3633ZM29.091 16.8178H29.7728V16.4318L29.4418 16.2332L29.091 16.8178ZM29.091 28.636V29.3178C29.4676 29.3178 29.7728 29.0126 29.7728 28.636H29.091ZM10.9092 28.636H10.2274C10.2274 29.0126 10.5326 29.3178 10.9092 29.3178V28.636ZM10.9092 16.8178L10.5584 16.2332L10.2274 16.4318V16.8178H10.9092ZM29.091 16.8178L29.4418 16.2332L20.3506 10.7786L19.9998 11.3633L19.649 11.9479L28.7402 17.4025L29.091 16.8178ZM29.091 16.8178H28.4092V28.636H29.091H29.7728V16.8178H29.091ZM29.091 28.636V27.9542H10.9092V28.636V29.3178H29.091V28.636ZM10.9092 28.636H11.591V16.8178H10.9092H10.2274V28.636H10.9092ZM10.9092 16.8178L11.26 17.4025L20.3506 11.9479L19.9998 11.3633L19.649 10.7786L10.5584 16.2332L10.9092 16.8178Z" fill="black"/>
<path d="M10.9092 16.8184L18.1819 22.2729M29.091 16.8184L21.8183 22.2729" stroke="black" stroke-width="1.36364" stroke-linejoin="round"/>
<path d="M10.9092 28.1815L20.0001 21.3633L29.091 28.1815" stroke="black" stroke-width="1.36364"/>
</svg>
