<svg width="40" height="40" viewBox="0 0 40 40" fill="none" xmlns="http://www.w3.org/2000/svg">
<rect x="0.5" y="0.5" width="39" height="39" rx="19.5" stroke="black"/>
<path d="M20.0039 15.5078C17.5195 15.5078 15.5156 17.5117 15.5156 19.9961C15.5156 22.4805 17.5195 24.4844 20.0039 24.4844C22.4883 24.4844 24.4922 22.4805 24.4922 19.9961C24.4922 17.5117 22.4883 15.5078 20.0039 15.5078ZM20.0039 22.9141C18.3984 22.9141 17.0859 21.6055 17.0859 19.9961C17.0859 18.3867 18.3945 17.0781 20.0039 17.0781C21.6133 17.0781 22.9219 18.3867 22.9219 19.9961C22.9219 21.6055 21.6094 22.9141 20.0039 22.9141ZM25.7227 15.3242C25.7227 15.9062 25.2539 16.3711 24.6758 16.3711C24.0938 16.3711 23.6289 15.9023 23.6289 15.3242C23.6289 14.7461 24.0977 14.2773 24.6758 14.2773C25.2539 14.2773 25.7227 14.7461 25.7227 15.3242ZM28.6953 16.3867C28.6289 14.9844 28.3086 13.7422 27.2812 12.7187C26.2578 11.6953 25.0156 11.375 23.6133 11.3047C22.168 11.2227 17.8359 11.2227 16.3906 11.3047C14.9922 11.3711 13.75 11.6914 12.7227 12.7148C11.6953 13.7383 11.3789 14.9805 11.3086 16.3828C11.2266 17.8281 11.2266 22.1602 11.3086 23.6055C11.375 25.0078 11.6953 26.25 12.7227 27.2734C13.75 28.2969 14.9883 28.6172 16.3906 28.6875C17.8359 28.7695 22.168 28.7695 23.6133 28.6875C25.0156 28.6211 26.2578 28.3008 27.2812 27.2734C28.3047 26.25 28.625 25.0078 28.6953 23.6055C28.7773 22.1602 28.7773 17.832 28.6953 16.3867ZM26.8281 25.1562C26.5234 25.9219 25.9336 26.5117 25.1641 26.8203C24.0117 27.2773 21.2773 27.1719 20.0039 27.1719C18.7305 27.1719 15.9922 27.2734 14.8438 26.8203C14.0781 26.5156 13.4883 25.9258 13.1797 25.1562C12.7227 24.0039 12.8281 21.2695 12.8281 19.9961C12.8281 18.7227 12.7266 15.9844 13.1797 14.8359C13.4844 14.0703 14.0742 13.4805 14.8438 13.1719C15.9961 12.7148 18.7305 12.8203 20.0039 12.8203C21.2773 12.8203 24.0156 12.7187 25.1641 13.1719C25.9297 13.4766 26.5195 14.0664 26.8281 14.8359C27.2852 15.9883 27.1797 18.7227 27.1797 19.9961C27.1797 21.2695 27.2852 24.0078 26.8281 25.1562Z" fill="black"/>
</svg>
