<svg width="136" height="35" viewBox="0 0 136 35" fill="none" xmlns="http://www.w3.org/2000/svg">
<path fill-rule="evenodd" clip-rule="evenodd" d="M48.0074 22.4696C48.0074 23.0471 47.584 23.5219 46.9817 23.5219C46.3958 23.5219 45.9725 23.0461 45.9725 22.4696V12.4367C45.9725 11.8592 46.3958 11.3844 46.9981 11.3844C47.584 11.3844 48.0074 11.8603 48.0074 12.4367V22.4696Z" fill="black"/>
<path fill-rule="evenodd" clip-rule="evenodd" d="M61.1602 12.4367V21.6044C61.1602 22.8438 60.5256 23.5403 59.5164 23.5403H59.4355C58.4753 23.5403 58.0188 22.9628 57.6123 22.1138L55.561 17.9544L53.7377 13.6598L53.7868 17.8192L53.8032 22.4534C53.8032 23.0309 53.3803 23.5056 52.7775 23.5056C52.1916 23.5056 51.7687 23.0298 51.7687 22.4534V13.2856C51.7687 12.1479 52.4032 11.3498 53.5106 11.3498H53.5919C54.6176 11.3498 55.0405 11.9273 55.4479 12.7762L57.466 16.9021L59.1916 20.909L59.143 17.0719L59.1266 12.4378C59.1266 11.8602 59.5495 11.3855 60.1523 11.3855C60.7369 11.3844 61.1602 11.8592 61.1602 12.4367Z" fill="black"/>
<path fill-rule="evenodd" clip-rule="evenodd" d="M69.3165 22.4534C69.3165 23.0309 68.8937 23.5057 68.2909 23.5057C67.7054 23.5057 67.2821 23.0298 67.2821 22.4534V13.3711H64.7589C64.2383 13.3711 63.8154 12.9634 63.8154 12.3696C63.8154 11.7921 64.2383 11.3855 64.7589 11.3855H71.8398C72.3603 11.3855 72.7836 11.7932 72.7836 12.3869C72.7836 12.9645 72.3603 13.3711 71.8398 13.3711H69.3165V22.4534Z" fill="black"/>
<path fill-rule="evenodd" clip-rule="evenodd" d="M75.4371 22.1139V12.692C75.4371 11.8095 75.9091 11.3175 76.7721 11.351H82.6325C83.153 11.351 83.5759 11.7749 83.5759 12.3524C83.5759 12.9299 83.153 13.3366 82.6325 13.3366H77.4553V16.2566H82.0297C82.5348 16.2566 82.9414 16.647 82.9414 17.2072C82.9414 17.7674 82.5348 18.1578 82.0297 18.1578H77.4553V21.5191H82.6325C83.153 21.5191 83.5759 21.9431 83.5759 22.5206C83.5759 23.0981 83.153 23.5047 82.6325 23.5047H76.7231C75.8768 23.5058 75.4053 23.0137 75.4371 22.1139Z" fill="black"/>
<path fill-rule="evenodd" clip-rule="evenodd" d="M94.6629 23.5566C95.2325 23.2505 95.4119 22.6222 95.1348 22.1301L93.0999 18.3622C94.7769 18.0227 95.7539 16.7324 95.7539 14.9837C95.7539 13.1506 94.6474 11.351 91.9934 11.351H88.1357C87.2731 11.3175 86.8012 11.8095 86.8012 12.692V22.4708C86.8012 23.0472 87.2241 23.5231 87.81 23.5231C88.4128 23.5231 88.8356 23.0483 88.8356 22.4708L88.8193 18.7699H90.9678L93.2307 23.1327C93.5064 23.6247 94.1092 23.8454 94.6629 23.5566ZM92.0411 16.8503H88.8179V13.3355H92.0247C93.099 13.3355 93.7017 14.0482 93.7017 15.0843C93.7017 16.1203 93.1321 16.8503 92.0411 16.8503Z" fill="black"/>
<path fill-rule="evenodd" clip-rule="evenodd" d="M99.9528 22.6059C98.7323 21.4682 98.1786 19.6859 98.1786 17.4451C98.1786 15.1869 98.7159 13.4219 99.921 12.3015C100.67 11.6224 101.678 11.1638 103.144 11.1638C104.43 11.1638 105.423 11.4699 106.172 12.1317C106.823 12.6747 107.295 13.4392 107.572 14.5088C107.718 15.069 107.344 15.6292 106.726 15.7482C106.14 15.8499 105.668 15.4594 105.489 14.8993C105.294 14.3564 105.032 13.9659 104.723 13.6934C104.3 13.303 103.78 13.1332 103.095 13.1332C102.363 13.1332 101.727 13.3538 101.255 13.8459C100.572 14.5586 100.278 15.8326 100.278 17.4451C100.278 19.0413 100.556 20.3142 101.272 21.027C101.744 21.519 102.363 21.7396 103.079 21.7396C103.827 21.7396 104.397 21.5363 104.87 21.0778C105.113 20.8399 105.326 20.5348 105.472 20.178C105.684 19.6513 106.123 19.2609 106.693 19.3972C107.262 19.5334 107.621 20.1098 107.442 20.6701C107.148 21.6034 106.644 22.3507 105.96 22.8601C105.212 23.4203 104.284 23.709 103.112 23.709C101.614 23.709 100.67 23.2505 99.9528 22.6059Z" fill="black"/>
<path fill-rule="evenodd" clip-rule="evenodd" d="M114.897 11.1638C111.364 11.1638 109.867 13.6426 109.867 17.4451C109.867 21.3665 111.349 23.7263 114.897 23.7263C118.381 23.7263 119.912 21.3665 119.912 17.4451C119.912 13.5744 118.398 11.1638 114.897 11.1638ZM114.881 13.1505C116.818 13.1505 117.827 14.5586 117.827 17.4451C117.827 20.3305 116.802 21.7396 114.881 21.7396C112.944 21.7396 111.967 20.3315 111.967 17.4451C111.967 14.5597 112.976 13.1505 114.881 13.1505Z" fill="black"/>
<path fill-rule="evenodd" clip-rule="evenodd" d="M135.702 22.4533C135.702 23.0309 135.279 23.5056 134.676 23.5056C134.091 23.5056 133.667 23.0298 133.667 22.4533V17.9036L133.716 13.4727L132.3 17.9717L130.867 22.4025C130.624 23.1834 130.119 23.4894 129.484 23.4894C128.816 23.4894 128.328 23.1672 128.068 22.3863L126.602 17.9728L125.251 13.5419L125.299 17.9047V22.4544C125.299 23.032 124.876 23.5067 124.274 23.5067C123.688 23.5067 123.265 23.0309 123.265 22.4544V13.3722C123.265 12.1155 123.916 11.3855 125.056 11.3855C126.13 11.3855 126.733 11.9792 127.074 13.0661L128.571 17.7003L129.483 20.8582L130.411 17.7003L131.908 13.0661C132.251 11.9792 132.837 11.3855 133.911 11.3855C135.051 11.3855 135.685 12.0981 135.685 13.3722L135.702 22.4533Z" fill="black"/>
<path d="M29.5422 19.1796C29.5422 19.4833 29.4259 19.7745 29.2188 19.9893C29.0117 20.204 28.7309 20.3246 28.4381 20.3246C28.1452 20.3246 27.8644 20.204 27.6573 19.9893C27.4502 19.7745 27.3339 19.4833 27.3339 19.1796V8.95014C27.3339 8.64644 27.4502 8.35519 27.6573 8.14048C27.8644 7.92573 28.1452 7.80508 28.4381 7.80508C28.7309 7.80508 29.0117 7.92573 29.2188 8.14048C29.4259 8.35519 29.5422 8.64644 29.5422 8.95014V19.1796ZM29.159 26.2674C29.0129 26.4188 24.9066 29.9674 17.3783 29.9674C9.85002 29.9674 5.77109 26.4377 5.59772 26.2863C5.48843 26.1908 5.39845 26.0738 5.33286 25.9421C5.26727 25.8104 5.22744 25.6666 5.21553 25.5189C5.20368 25.3712 5.22003 25.2226 5.26368 25.0814C5.30733 24.9403 5.37742 24.8095 5.46994 24.6965C5.66054 24.4679 5.93053 24.3266 6.22114 24.3036C6.51175 24.2805 6.79937 24.3776 7.02121 24.5735C7.08512 24.6208 10.7534 27.7057 17.3692 27.7057C23.9849 27.7057 27.6806 24.6019 27.7172 24.5735C27.9415 24.3793 28.2301 24.2835 28.5215 24.3065C28.8128 24.3295 29.0841 24.4694 29.2775 24.6965C29.4637 24.9218 29.5567 25.2141 29.5361 25.51C29.5156 25.806 29.3834 26.0815 29.1681 26.2769L29.159 26.2674ZM5.20531 8.95014C5.2218 8.64549 5.35394 8.36001 5.57283 8.15606C5.79167 7.95216 6.07951 7.84637 6.37335 7.86186C6.64575 7.8779 6.90279 7.99799 7.09488 8.19894C7.28697 8.39989 7.40053 8.66747 7.41361 8.95014V19.1607C7.41361 19.4644 7.29728 19.7556 7.0902 19.9703C6.88317 20.1851 6.60232 20.3057 6.30949 20.3057C6.01665 20.3057 5.7358 20.1851 5.52872 19.9703C5.32164 19.7556 5.20531 19.4644 5.20531 19.1607V8.95014ZM10.7443 6.67902C10.7608 6.37437 10.8929 6.08889 11.1118 5.88495C11.3306 5.68104 11.6185 5.57526 11.9123 5.59074C12.1847 5.60678 12.4418 5.72687 12.6339 5.92782C12.826 6.12877 12.9395 6.39636 12.9526 6.67902V21.8198C12.9526 22.1234 12.8363 22.4147 12.6292 22.6294C12.4221 22.8442 12.1413 22.9648 11.8485 22.9648C11.5556 22.9648 11.2748 22.8442 11.0677 22.6294C10.8606 22.4147 10.7443 22.1234 10.7443 21.8198V6.67902ZM16.3107 6.11124C16.3107 5.80755 16.427 5.5163 16.6341 5.30159C16.8411 5.08683 17.122 4.96619 17.4148 4.96619C17.7077 4.96619 17.9885 5.08683 18.1956 5.30159C18.4026 5.5163 18.519 5.80755 18.519 6.11124V22.5768C18.519 22.8805 18.4026 23.1717 18.1956 23.3864C17.9885 23.6012 17.7077 23.7218 17.4148 23.7218C17.122 23.7218 16.8411 23.6012 16.6341 23.3864C16.427 23.1717 16.3107 22.8805 16.3107 22.5768V6.11124ZM21.7858 6.67902C21.7858 6.37532 21.9021 6.08408 22.1092 5.86936C22.3163 5.65461 22.5971 5.53397 22.8899 5.53397C23.1828 5.53397 23.4636 5.65461 23.6707 5.86936C23.8777 6.08408 23.9941 6.37532 23.9941 6.67902V21.8198C23.9941 22.1234 23.8777 22.4147 23.6707 22.6294C23.4636 22.8442 23.1828 22.9648 22.8899 22.9648C22.5971 22.9648 22.3163 22.8442 22.1092 22.6294C21.9021 22.4147 21.7858 22.1234 21.7858 21.8198V6.67902ZM29.8433 0.433446H4.94981C4.40738 0.429676 3.86958 0.536918 3.36721 0.749041C2.86479 0.961118 2.40771 1.2739 2.02203 1.66943C1.63635 2.06502 1.3297 2.53555 1.11967 3.05418C0.90959 3.57277 0.800259 4.12928 0.797852 4.69179V30.2418C0.800259 30.8043 0.90959 31.3608 1.11967 31.8794C1.3297 32.3981 1.63635 32.8686 2.02203 33.2642C2.40771 33.6597 2.86479 33.9725 3.36721 34.1846C3.86958 34.3967 4.40738 34.5038 4.94981 34.5002H29.8433C30.385 34.5038 30.922 34.397 31.4238 34.1855C31.9256 33.974 32.3823 33.662 32.7679 33.2675C33.1534 32.8729 33.4603 32.4035 33.6709 31.886C33.8815 31.3685 33.9917 30.813 33.9953 30.2513V4.69179C33.9929 4.13005 33.8838 3.57436 33.6743 3.05636C33.4649 2.53836 33.159 2.06824 32.7743 1.67279C32.3896 1.27739 31.9336 0.964433 31.4322 0.751765C30.9309 0.539098 30.3941 0.430947 29.8525 0.433446" fill="black"/>
</svg>
