<svg width="123" height="39" viewBox="0 0 123 39" fill="none" xmlns="http://www.w3.org/2000/svg">
<g clip-path="url(#clip0_145_3274)">
<path fill-rule="evenodd" clip-rule="evenodd" d="M9.63528 24.3274L4.20847 18.8757C3.28633 17.9493 1.79127 17.9493 0.868843 18.8757C-0.0532862 19.802 -0.0532862 21.3039 0.868843 22.2306L7.96546 29.3598C8.88759 30.2862 10.383 30.2862 11.3051 29.3598L17.9847 22.6493L14.6453 19.2944L9.63528 24.3274Z" fill="black"/>
<path fill-rule="evenodd" clip-rule="evenodd" d="M30.0906 13.8439L19.6553 24.3271L9.21872 13.8427C8.2963 12.916 6.80122 12.916 5.8791 13.8427C4.95697 14.7691 4.95697 16.271 5.8791 17.1976L17.9854 29.3595C18.9076 30.2859 20.4027 30.2859 21.3251 29.3595L33.4303 17.1988C34.3523 16.2722 34.3523 14.7702 33.4303 13.8439C32.5078 12.9175 31.0127 12.9175 30.0906 13.8439Z" fill="black"/>
<path fill-rule="evenodd" clip-rule="evenodd" d="M38.44 22.2317L31.3445 29.3596C30.4225 30.2861 28.9274 30.2861 28.0052 29.3596L10.8889 12.1648C9.96672 11.2384 9.96672 9.73647 10.8889 8.81011C11.8113 7.88345 13.3064 7.88345 14.2284 8.81011L29.6748 24.3272L35.1004 18.8767C36.0228 17.9504 37.5179 17.9504 38.44 18.8767C39.3621 19.8034 39.3621 21.3053 38.44 22.2317Z" fill="black"/>
<path fill-rule="evenodd" clip-rule="evenodd" d="M28.42 8.8111C27.4978 7.88474 26.0028 7.88474 25.0804 8.8111L14.645 19.2944L17.9847 22.6493L28.42 12.166C29.3422 11.2394 29.3422 9.73746 28.42 8.8111Z" fill="black"/>
<path fill-rule="evenodd" clip-rule="evenodd" d="M51.356 10.4496H48.4521V27.5859H59.0921V24.998H51.356V10.4496ZM65.3769 15.6021C67.1425 15.6021 68.3273 16.3249 68.9778 17.2109L69.1171 15.8353H71.6261V27.5859H69.1171L68.9778 26.2103C68.3273 27.0963 67.1425 27.819 65.3769 27.819C62.1942 27.819 60.0337 25.2311 60.0337 21.7106C60.0337 18.1667 62.1942 15.6021 65.3769 15.6021ZM65.9809 18.0735C64.1688 18.0735 62.8679 19.4957 62.8679 21.7106C62.8679 23.9255 64.1688 25.3477 65.9809 25.3477C67.3748 25.3477 68.2112 24.6016 68.8384 23.599V19.8221C68.2112 18.8196 67.3748 18.0735 65.9809 18.0735ZM78.6544 11.8951H75.8666V15.8353H73.6596V18.2134H75.8666V23.4359C75.8666 26.2803 77.5625 27.819 80.2341 27.819C81.3956 27.819 82.2552 27.4926 82.836 27.1196L82.0926 24.928C81.7441 25.1379 81.233 25.301 80.4897 25.301C79.3977 25.301 78.6544 24.6016 78.6544 23.4125V18.2134H82.1855V15.8353H78.6544V11.8951ZM88.2613 11.8951H85.4735V15.8353H83.2665V18.2134H85.4735V23.4359C85.4735 26.2803 87.1693 27.819 89.841 27.819C91.0025 27.819 91.8621 27.4926 92.4429 27.1196L91.6994 24.928C91.351 25.1379 90.84 25.301 90.0965 25.301C89.0046 25.301 88.2613 24.6016 88.2613 23.4125V18.2134H91.7925V15.8353H88.2613V11.8951ZM97.1015 15.8353H94.3137V27.5859H97.1015V15.8353ZM95.7076 10.3563C94.7319 10.3563 93.9884 11.0791 93.9884 12.0816C93.9884 13.0841 94.7319 13.8069 95.7076 13.8069C96.7066 13.8069 97.4499 13.0841 97.4499 12.0816C97.4499 11.0791 96.7066 10.3563 95.7076 10.3563ZM105.524 15.6021C101.923 15.6021 99.5301 18.1667 99.5301 21.7106C99.5301 25.2311 101.946 27.819 105.547 27.819C107.661 27.819 109.263 26.8631 110.309 25.2311L108.311 23.6691C107.754 24.6016 106.848 25.371 105.57 25.371C103.503 25.371 102.364 23.7623 102.364 21.7106C102.364 19.6355 103.456 18.0502 105.547 18.0502C106.848 18.0502 107.707 18.7962 108.241 19.7288L110.263 18.1901C109.217 16.558 107.661 15.6021 105.524 15.6021ZM117.128 15.6021C120.73 15.6021 122.495 18.3066 122.495 21.594V22.5732H114.224C114.294 24.4384 115.409 25.4642 117.36 25.4642C118.731 25.4642 119.73 24.858 120.264 24.112L122.193 25.6974C121.031 27.0963 119.498 27.819 117.338 27.819C113.714 27.819 111.39 25.2544 111.39 21.7339C111.39 18.1901 113.76 15.6021 117.128 15.6021ZM117.082 17.8403C115.433 17.8403 114.317 18.9361 114.224 20.5682H119.754C119.684 18.9594 118.755 17.8403 117.082 17.8403Z" fill="black"/>
</g>
<defs>
<clipPath id="clip0_145_3274">
<rect width="122.479" height="38.9336" fill="white" transform="translate(0.177246)"/>
</clipPath>
</defs>
</svg>
