<svg width="40" height="40" viewBox="0 0 40 40" fill="none" xmlns="http://www.w3.org/2000/svg">
<rect x="0.5" y="0.5" width="39" height="39" rx="19.5" stroke="black"/>
<path d="M27.5 11.25H12.4961C11.8086 11.25 11.25 11.8164 11.25 12.5117V27.4883C11.25 28.1836 11.8086 28.75 12.4961 28.75H27.5C28.1875 28.75 28.75 28.1836 28.75 27.4883V12.5117C28.75 11.8164 28.1875 11.25 27.5 11.25ZM16.5391 26.25H13.9453V17.8984H16.543V26.25H16.5391ZM15.2422 16.7578C14.4102 16.7578 13.7383 16.082 13.7383 15.2539C13.7383 14.4258 14.4102 13.75 15.2422 13.75C16.0703 13.75 16.7461 14.4258 16.7461 15.2539C16.7461 16.0859 16.0742 16.7578 15.2422 16.7578ZM26.2617 26.25H23.668V22.1875C23.668 21.2188 23.6484 19.9727 22.3203 19.9727C20.9688 19.9727 20.7617 21.0273 20.7617 22.1172V26.25H18.168V17.8984H20.6562V19.0391H20.6914C21.0391 18.3828 21.8867 17.6914 23.1484 17.6914C25.7734 17.6914 26.2617 19.4219 26.2617 21.6719V26.25Z" fill="black"/>
</svg>
