<svg width="166" height="42" viewBox="0 0 166 42" fill="none" xmlns="http://www.w3.org/2000/svg">
<path d="M55.1152 9.67825C55.2302 9.67043 55.3452 9.66262 55.5159 9.69943C55.7059 9.8591 55.9282 9.9552 55.9578 10.0928C56.0432 10.4899 56.0794 10.9035 56.0827 11.3111C56.0881 11.9509 55.9599 12.6054 56.0584 13.2267C56.1466 13.7836 55.9568 13.8244 55.5166 13.8218C54.0842 13.8132 52.6516 13.827 51.2192 13.841C50.8225 13.8448 50.5058 13.8946 50.5104 14.4553C50.5554 19.8628 50.5753 25.2705 50.6115 30.6781C50.6125 30.8318 50.7147 30.9848 50.7697 31.1381C50.7783 31.4284 50.7869 31.7188 50.7447 32.0659C50.4843 32.154 50.275 32.2095 50.065 32.2125C49.0626 32.2268 48.0586 32.1972 47.058 32.2438C46.5275 32.2685 46.4085 32.0868 46.4075 31.5818C46.3952 25.9069 46.3596 20.2319 46.33 14.557C46.3292 14.3959 46.3646 14.2202 46.3112 14.0785C46.2694 13.9677 46.1155 13.8225 46.0122 13.8231C44.5285 13.8318 43.0446 13.8499 41.5616 13.8963C41.1462 13.9093 41.0423 13.7595 41.0515 13.3705C41.0718 12.5118 41.096 11.6483 41.0256 10.7945C40.9925 10.3928 41.0481 10.0702 41.2563 9.7508C41.6302 9.73909 42.0041 9.71889 42.3781 9.71698C46.4477 9.69621 50.5173 9.67831 54.6466 9.70115C54.8426 9.72119 54.9789 9.69972 55.1152 9.67825Z" fill="#5C4AD3"/>
<path d="M101.73 23.5466C101.762 23.6383 101.788 23.6865 101.801 23.738C102.008 24.5294 102.006 24.5232 101.24 24.7704C98.3173 25.7137 95.3963 26.661 92.4754 27.609C92.3795 27.6401 92.291 27.6943 92.1936 27.7403C93.2252 29.0679 94.8681 29.1449 97.5034 27.9812C98.1239 29.0053 98.7492 30.0373 99.4071 31.1232C98.43 31.6973 97.4123 32.0964 96.3306 32.3221C94.2658 32.7531 92.2722 32.5393 90.4016 31.5378C87.7594 30.1232 86.8394 27.3188 87.044 24.6758C87.3684 20.4855 91.4526 17.5752 95.7417 18.0972C98.7823 18.4672 100.996 20.4621 101.73 23.5466ZM92.9353 21.7619C91.7293 22.4483 91.0667 23.9107 91.3611 25.3056C93.2795 24.6417 95.1922 23.9798 97.1567 23.2999C97.066 23.0819 97.0105 22.896 96.9168 22.732C96.1838 21.4495 94.6418 21.0535 92.9353 21.7619Z" fill="#5B49D2"/>
<path d="M70.96 18.8234C72.333 18.8163 73.7059 18.8092 75.1429 18.8018C75.1441 19.0191 75.1451 19.2099 75.146 19.4008C75.1587 21.8349 75.1712 24.2691 75.1839 26.7032C75.1847 26.8643 75.176 27.0262 75.189 27.1863C75.25 27.9375 75.373 28.6984 76.154 29.0286C77.0228 29.3959 77.8786 29.2711 78.6108 28.6384C79.3617 27.9894 79.743 27.1191 79.916 26.173C80.0439 25.4739 80.1057 24.7546 80.1138 24.0434C80.1337 22.3089 80.1053 20.5738 80.0961 18.7953C81.5257 18.7879 82.9263 18.7806 84.3609 18.7732C84.384 23.2272 84.407 27.6757 84.4306 32.219C83.9281 32.2216 83.4184 32.2245 82.9087 32.2268C82.2822 32.2296 81.6545 32.2087 81.0298 32.2428C80.6251 32.2649 80.5031 32.0987 80.4729 31.7254C80.4326 31.2286 80.3373 30.7362 80.2625 30.2206C79.7967 30.7173 79.4039 31.2454 78.9078 31.6452C77.2965 32.9437 75.4541 33.2753 73.5142 32.5964C72.0384 32.0799 71.1565 30.9676 70.9586 29.3069C70.9937 29.0322 71.0085 28.8363 71.0076 28.6404C70.9929 25.3681 70.9762 22.0958 70.96 18.8234Z" fill="#5B49D2"/>
<path d="M119.294 21.6285C121.06 19.3084 123.4 18.477 126.201 18.8003C128.711 19.09 130.568 20.3576 131.573 22.6788C133.383 26.8594 130.993 31.9703 125.712 32.2647C123.809 32.3708 122.044 32.0069 120.529 30.7943C118.8 29.4105 118.063 27.559 118.097 25.38C118.118 24.0281 118.488 22.7763 119.294 21.6285ZM121.282 23.8841C121.212 24.712 121.008 25.5548 121.097 26.3652C121.41 29.1997 124.584 30.8012 127.087 29.4486C128.805 28.5201 129.679 26.1244 129.043 24.1297C128.556 22.6014 127.598 21.5232 126.008 21.1911C123.874 20.7454 122.271 21.6805 121.282 23.8841Z" fill="black"/>
<path d="M136.319 12.073C137.034 7.7634 141.315 7.31565 143.918 8.80526C143.523 9.48669 143.129 10.1682 142.732 10.853C141.352 9.91607 139.421 10.4681 139.154 12.4786C139.077 13.0611 139.061 13.6549 139.059 14.2437C139.054 15.8518 139.071 17.46 139.079 19.1248C140.45 19.1177 141.783 19.1108 143.138 19.1038C143.143 19.994 143.147 20.8274 143.152 21.7154C141.806 21.7224 140.474 21.7293 139.099 21.7364C139.117 25.1488 139.134 28.5071 139.152 31.8963C138.185 31.9013 137.262 31.9061 136.294 31.9111C136.277 28.5463 136.259 25.1902 136.241 21.7706C135.496 21.7745 134.792 21.7781 134.059 21.7819C134.055 20.8856 134.05 20.0524 134.046 19.1798C134.744 19.1762 135.438 19.1726 136.197 19.1687C136.196 18.9387 136.192 18.7472 136.194 18.5557C136.211 16.5874 136.227 14.6191 136.249 12.6508C136.251 12.4732 136.289 12.296 136.319 12.073Z" fill="black"/>
<path d="M59.2445 18.8859C60.4402 18.8797 61.6358 18.8735 62.8959 18.867C63.0136 19.8292 63.1302 20.7816 63.2596 21.8394C64.5028 19.9321 66.091 18.6228 68.375 18.1151C68.3001 19.5913 68.2292 20.9897 68.1613 22.3277C67.4494 22.4678 66.7479 22.493 66.1421 22.7466C64.3912 23.4796 63.4807 24.8975 63.381 26.7541C63.2937 28.3783 63.3726 30.0115 63.3783 31.6408C63.3789 31.8364 63.3802 32.0319 63.3817 32.3083C61.9621 32.3156 60.5752 32.3228 59.1849 32.2629C59.1893 32.0006 59.2048 31.8053 59.2039 31.6101C59.1857 27.7923 59.1623 23.9745 59.1505 20.1566C59.1492 19.7332 59.2116 19.3095 59.2445 18.8859Z" fill="#095BE8"/>
<path d="M115.384 30.3653C114.516 31.6471 113.285 32.2093 111.825 32.3144C110.416 32.4157 109.032 32.281 107.776 31.5743C107.254 31.2808 106.792 30.8818 106.253 30.4954C106.706 29.8824 107.102 29.3454 107.44 28.8874C108.241 29.3124 108.963 29.777 109.746 30.0888C110.564 30.4144 111.436 30.3609 112.252 29.9951C113.325 29.5144 113.492 28.0425 112.496 27.4261C111.857 27.0306 111.09 26.8443 110.387 26.5479C109.732 26.2716 109.046 26.0394 108.444 25.6719C107.195 24.9092 106.687 23.7345 106.853 22.2916C107.018 20.856 107.797 19.7619 109.119 19.2787C111.406 18.4426 113.607 18.7443 115.665 20.2273C115.286 20.825 114.927 21.3918 114.54 22.0026C113.844 21.3466 113.021 21.0083 112.104 20.8756C111.429 20.7778 110.818 20.9561 110.288 21.3514C109.39 22.0222 109.617 23.2807 110.764 23.7958C111.557 24.1521 112.406 24.3829 113.223 24.6867C113.539 24.8042 113.85 24.9482 114.143 25.1145C116.143 26.2465 116.654 28.3805 115.384 30.3653Z" fill="black"/>
<path d="M159.28 23.2941C160.052 23.6151 160.795 23.9082 161.533 24.2107C162.06 24.4266 162.606 24.6111 163.101 24.8856C164.989 25.9315 165.525 28.081 164.407 29.9454C163.783 30.9855 162.878 31.655 161.71 31.8955C159.577 32.3346 157.553 32.1055 155.774 30.713C155.579 30.5605 155.396 30.3934 155.184 30.2136C155.621 29.6226 156.011 29.0967 156.39 28.5845C156.972 28.9477 157.504 29.3319 158.082 29.6282C159.013 30.106 160.001 30.1503 160.992 29.814C161.551 29.6244 161.941 29.265 162.019 28.6375C162.109 27.921 161.882 27.3237 161.22 27.032C160.375 26.6597 159.483 26.3986 158.619 26.0679C157.436 25.615 156.403 24.9799 155.949 23.701C155.201 21.592 156.432 19.3035 158.708 18.7844C160.534 18.3679 162.334 18.5414 163.974 19.571C164.168 19.6931 164.352 19.8321 164.574 19.9868C164.195 20.5795 163.832 21.146 163.448 21.746C162.769 21.1167 161.994 20.7162 161.104 20.6639C160.606 20.6347 160.058 20.6847 159.602 20.8697C158.492 21.3195 158.355 22.4384 159.28 23.2941Z" fill="black"/>
<path d="M147.312 24.5134C147.306 23.4613 147.301 22.4629 147.296 21.4232C146.499 21.4273 145.753 21.4312 144.977 21.4352C144.973 20.6682 144.969 19.943 144.965 19.1754C145.726 19.1714 146.47 19.1676 147.27 19.1634C147.261 17.2732 147.251 15.4237 147.241 13.5446C148.222 13.5396 149.147 13.5348 150.126 13.5297C150.136 15.3673 150.145 17.2196 150.155 19.1271C151.344 19.1209 152.48 19.115 153.645 19.109C153.649 19.8729 153.652 20.5819 153.656 21.3551C152.538 21.3609 151.404 21.3668 150.196 21.3731C150.205 23.1644 150.214 24.8929 150.223 26.6214C150.232 28.3536 150.241 30.0858 150.25 31.8438C149.273 31.8488 148.35 31.8536 147.35 31.8588C147.337 29.4216 147.325 26.9944 147.312 24.5134Z" fill="black"/>
<path d="M50.7807 31.0889C50.7144 30.9847 50.6122 30.8317 50.6112 30.678C50.575 25.2704 50.5551 19.8627 50.5101 14.4552C50.5055 13.8945 50.8222 13.8447 51.2189 13.8409C52.6513 13.8269 54.0839 13.8131 55.5163 13.8217C55.9565 13.8243 56.1463 13.7835 56.0581 13.2266C55.9596 12.6053 56.0878 11.9508 56.0824 11.311C56.0791 10.9034 56.0429 10.4898 55.9575 10.0927C55.9279 9.9551 55.7056 9.85899 55.558 9.70917C55.7362 9.66455 55.9279 9.6547 56.1561 9.64298C56.1636 11.0911 56.1709 12.4964 56.1785 13.9659C54.3911 13.9751 52.5964 13.9845 50.7038 13.9943C50.7334 19.7184 50.7628 25.379 50.7807 31.0889Z" fill="#6A4CC5"/>
<path d="M41.2144 9.73962C41.0482 10.0703 40.9926 10.3928 41.0257 10.7945C41.0961 11.6483 41.0719 12.5118 41.0516 13.3705C41.0424 13.7595 41.1464 13.9093 41.5618 13.8963C43.0447 13.8499 44.5286 13.8318 46.0123 13.8231C46.1156 13.8225 46.2695 13.9677 46.3113 14.0785C46.3647 14.2202 46.3293 14.3959 46.3301 14.557C46.3597 20.2319 46.3953 25.9069 46.4076 31.5819C46.4087 32.0869 46.5276 32.2686 47.0582 32.2438C48.0587 32.1972 49.0627 32.2268 50.0651 32.2125C50.2751 32.2095 50.4844 32.154 50.7344 32.1133C50.7119 32.2009 50.6503 32.3817 50.5857 32.3828C49.1785 32.4062 47.771 32.4097 46.3166 32.4172C46.2848 26.2858 46.2534 20.2148 46.2216 14.0729C44.4371 14.0821 42.6979 14.0911 40.8816 14.1005C40.878 13.413 40.8748 12.794 40.8716 12.1751C40.8681 11.4778 40.8678 10.7805 40.8593 10.0833C40.8566 9.86121 40.8779 9.67956 41.2144 9.73962Z" fill="#6A4CC5"/>
<path d="M59.2 18.8811C59.2116 19.3097 59.1491 19.7334 59.1505 20.1568C59.1623 23.9747 59.1856 27.7925 59.2038 31.6103C59.2048 31.8055 59.1893 32.0008 59.1569 32.232C59.1185 32.0729 59.0935 31.878 59.0924 31.6829C59.0691 27.6052 59.0468 23.5275 59.033 19.4498C59.0323 19.2587 59.1129 19.0674 59.2 18.8811Z" fill="#5444BB"/>
<path d="M70.9197 18.841C70.9763 22.0957 70.9929 25.368 71.0076 28.6404C71.0085 28.8362 70.9937 29.0321 70.9641 29.2649C70.9263 28.7135 70.8991 28.1252 70.8971 27.5367C70.8876 24.644 70.8847 21.7513 70.9197 18.841Z" fill="#5444BB"/>
<rect x="0.859863" y="4.13867" width="32.8764" height="33.8434" rx="5.58684" transform="rotate(-0.296898 0.859863 4.13867)" fill="url(#paint0_linear_144_1015)"/>
<path d="M0.947106 20.0401C0.933892 17.6327 0.920678 15.2252 0.943381 12.7748C1.02707 12.7398 1.07485 12.7477 1.13376 12.7685C1.14489 12.7815 1.19214 12.783 1.19214 12.783C1.19214 12.783 1.22477 12.7453 1.26195 12.7332C1.40272 12.7153 1.50631 12.7095 1.63728 12.7046C1.69554 12.6879 1.72641 12.6702 1.80023 12.6375C2.81597 12.4261 3.78877 12.2297 4.80138 12.0371C4.88931 12.0206 4.93744 12.0004 5.02436 11.9846C5.32161 11.9351 5.58006 11.8812 5.87991 11.8342C6.10955 11.7975 6.29779 11.7538 6.52915 11.7153C7.54326 11.5326 8.51425 11.3446 9.52849 11.1582C10.4382 10.9766 11.3046 10.7934 12.203 10.6159C12.3155 10.5963 12.3961 10.571 12.5232 10.5499C12.7213 10.5316 12.8728 10.5092 13.0658 10.4875C13.404 10.4206 13.7007 10.3529 14.0417 10.2902C14.6306 10.1807 15.1752 10.0661 15.7638 9.95477C17.6391 9.59671 19.4702 9.23546 21.3465 8.87704C21.7226 8.8032 22.0535 8.72653 22.3799 8.65138C22.3754 8.6529 22.3807 8.66071 22.4272 8.66385C24.279 8.33657 26.0845 8.00709 27.8895 7.67544C29.5549 7.36947 31.2198 7.06117 32.8849 6.75389C33.0971 7.14427 33.4012 7.51177 33.5053 7.92913C33.885 9.45144 33.7756 11.012 33.7603 12.5629C33.758 12.7899 33.7715 13.0171 33.7321 13.2859C32.7888 13.5145 31.8912 13.7014 30.9514 13.885C28.5095 14.3697 26.1089 14.8538 23.7103 15.3478C22.7716 15.5411 21.8375 15.7568 20.8574 15.959C20.5821 15.9949 20.2797 15.9272 20.2866 16.3171C20.3055 17.3814 20.3223 18.4458 20.3285 19.5583C20.3307 20.3241 20.3443 21.0416 20.3439 21.8075C20.3443 22.6833 20.3587 23.5109 20.359 24.3867C20.3596 25.5144 20.3743 26.5938 20.3753 27.7211C20.3765 29.0959 20.3913 30.4228 20.3934 31.7984C20.3932 32.5308 20.4057 33.2146 20.4049 33.9458C20.4015 34.354 20.4114 34.7148 20.4077 35.1151C20.4037 35.2366 20.4132 35.3185 20.4101 35.4493C20.4038 36.2817 20.4102 37.0651 20.4165 37.8485C18.2593 37.8672 16.1022 37.8886 13.945 37.898C13.8223 37.8985 13.6991 37.8005 13.5377 37.6832C13.5041 37.5681 13.509 37.5183 13.5416 37.4346C13.5801 37.3305 13.6006 37.2603 13.6002 37.1902C13.5768 32.3735 13.5525 27.5567 13.5233 22.74C13.5224 22.6042 13.4679 22.4687 13.4304 22.283C13.4143 20.6626 13.4062 19.0923 13.3977 17.458C12.8627 17.5757 12.3976 17.6781 11.8987 17.7831C11.8001 17.8052 11.7352 17.8247 11.6346 17.8402C11.5103 17.8662 11.4216 17.8961 11.2895 17.9245C11.1321 17.961 11.0208 18.0122 10.9039 18.0353C9.78797 18.2561 8.67116 18.4721 7.51196 18.6869C7.36181 18.7129 7.2543 18.7415 7.12658 18.7711C7.07678 18.7732 7.0536 18.786 7.0145 18.8025C6.99219 18.7946 6.95182 18.8194 6.9067 18.8159C5.90512 19.0007 4.94654 19.1788 3.9928 19.3799C3.00753 19.5877 2.02695 19.8177 1.01993 20.0346C0.99554 20.0313 0.947106 20.0401 0.947106 20.0401Z" fill="#FEFEFF"/>
<defs>
<linearGradient id="paint0_linear_144_1015" x1="17.2981" y1="4.13867" x2="17.2981" y2="37.982" gradientUnits="userSpaceOnUse">
<stop stop-color="#7B64E1"/>
<stop stop-color="#274ECC"/>
<stop offset="1" stop-color="#721C93"/>
</linearGradient>
</defs>
</svg>
