<svg width="40" height="40" viewBox="0 0 40 40" fill="none" xmlns="http://www.w3.org/2000/svg">
<rect x="0.454545" y="0.454545" width="39.0909" height="39.0909" rx="19.5455" stroke="black" stroke-width="0.909091"/>
<path d="M10.9891 15.974L10.3207 16.1086L10.3208 16.1088L10.9891 15.974ZM16.3637 16.3637L16.8286 16.8625L17.202 16.5145L16.9732 16.0582L16.3637 16.3637ZM13.6295 10.9092L14.239 10.6036C14.1463 10.4187 13.9747 10.2859 13.7724 10.2425C13.5702 10.1991 13.3592 10.2499 13.1988 10.3806L13.6295 10.9092ZM15.7994 24.2008L16.2817 23.7188L16.2814 23.7185L15.7994 24.2008ZM24.026 29.0112L23.8911 29.6795L23.8913 29.6796L24.026 29.0112ZM23.6362 23.6366L23.9418 23.027L23.4855 22.7983L23.1375 23.1717L23.6362 23.6366ZM29.0908 26.3708L29.6194 26.8015C29.75 26.6411 29.8008 26.4301 29.7574 26.2278C29.7141 26.0256 29.5812 25.854 29.3963 25.7613L29.0908 26.3708ZM10.9891 15.974L10.3208 16.1088C10.5859 17.4227 11.0277 18.7191 11.9272 20.287L12.5186 19.9477L13.11 19.6084C12.2852 18.1708 11.8943 17.0129 11.6575 15.8391L10.9891 15.974ZM12.5186 19.9477L12.9835 20.4465L16.8286 16.8625L16.3637 16.3637L15.8988 15.865L12.0537 19.449L12.5186 19.9477ZM16.3637 16.3637L16.9732 16.0582L14.239 10.6036L13.6295 10.9092L13.02 11.2147L15.7542 16.6693L16.3637 16.3637ZM13.6295 10.9092L13.1988 10.3806C11.8241 11.5006 9.76063 13.3283 10.3207 16.1086L10.9891 15.974L11.6575 15.8393C11.2759 13.9448 12.6199 12.6111 14.0601 11.4378L13.6295 10.9092ZM12.5186 19.9477L11.9272 20.287C12.8326 21.8651 13.9926 23.3592 15.3175 24.683L15.7994 24.2008L16.2814 23.7185C15.0359 22.4739 13.9514 21.075 13.11 19.6084L12.5186 19.9477ZM24.026 29.0112L24.1609 28.3428C22.987 28.1059 21.8291 27.7151 20.3915 26.8903L20.0522 27.4817L19.7129 28.0731C21.2808 28.9726 22.5772 29.4144 23.8911 29.6795L24.026 29.0112ZM20.0522 27.4817L20.551 27.9465L24.135 24.1014L23.6362 23.6366L23.1375 23.1717L19.5535 27.0168L20.0522 27.4817ZM23.6362 23.6366L23.3307 24.2461L28.7852 26.9803L29.0908 26.3708L29.3963 25.7613L23.9418 23.027L23.6362 23.6366ZM29.0908 26.3708L28.5622 25.9401C27.3888 27.3803 26.0552 28.7244 24.1606 28.3428L24.026 29.0112L23.8913 29.6796C26.6717 30.2396 28.4994 28.1761 29.6194 26.8015L29.0908 26.3708ZM20.0522 27.4817L20.3915 26.8903C18.925 26.0489 17.5263 24.9643 16.2817 23.7188L15.7994 24.2008L15.3171 24.6827C16.641 26.0075 18.1348 27.1676 19.7129 28.0731L20.0522 27.4817Z" fill="black"/>
</svg>
