<svg width="40" height="40" viewBox="0 0 40 40" fill="none" xmlns="http://www.w3.org/2000/svg">
<rect x="0.5" y="0.5" width="39" height="39" rx="19.5" stroke="black"/>
<path d="M29.0853 15.4192C28.8672 14.598 28.2246 13.9513 27.4088 13.7318C25.9299 13.333 20 13.333 20 13.333C20 13.333 14.0702 13.333 12.5913 13.7318C11.7755 13.9513 11.1329 14.598 10.9148 15.4192C10.5186 16.9077 10.5186 20.0131 10.5186 20.0131C10.5186 20.0131 10.5186 23.1186 10.9148 24.6071C11.1329 25.4283 11.7755 26.048 12.5913 26.2675C14.0702 26.6663 20 26.6663 20 26.6663C20 26.6663 25.9299 26.6663 27.4088 26.2675C28.2246 26.048 28.8672 25.4283 29.0853 24.6071C29.4815 23.1186 29.4815 20.0131 29.4815 20.0131C29.4815 20.0131 29.4815 16.9077 29.0853 15.4192ZM18.0606 22.8327V17.1936L23.0169 20.0132L18.0606 22.8327Z" fill="black"/>
</svg>
